<svg width="720" height="240" viewBox="0 0 720 240" fill="none" xmlns="http://www.w3.org/2000/svg">
<circle cx="29" cy="123" r="20" fill="#FFC514"/>
<circle cx="120" cy="181" r="20" fill="#FFC514"/>
<circle cx="75" cy="50" r="15" fill="#FFC514"/>
<circle cx="164" cy="50" r="15" fill="#FFC514"/>
<circle cx="194" cy="138" r="15" fill="#FFC514"/>
<circle cx="120" cy="113" r="30" fill="#FFC514"/>
<line x1="41.9439" y1="120.685" x2="95.1072" y2="110.406" stroke="#FFC514" stroke-width="5"/>
<line x1="119.5" y1="135" x2="119.5" y2="169" stroke="#FFC514" stroke-width="5"/>
<line x1="74.0013" y1="48.5017" x2="105.378" y2="90.4125" stroke="#FFC514" stroke-width="5"/>
<line x1="128.692" y1="92.2557" x2="158.513" y2="57.4891" stroke="#FFC514" stroke-width="5"/>
<line x1="141.301" y1="116.555" x2="188.501" y2="134.781" stroke="#FFC514" stroke-width="5"/>
<path d="M233.282 166C232.842 166 232.329 166 231.742 166C231.17 166 230.613 166 230.07 166C229.527 166 229.058 166 228.662 166C228.266 166 228.039 166 227.98 166C227.907 166 227.848 165.978 227.804 165.934C227.76 165.89 227.738 165.831 227.738 165.758C227.738 164.555 227.738 163.404 227.738 162.304C227.738 161.189 227.738 160.097 227.738 159.026C227.738 157.941 227.738 156.848 227.738 155.748C227.738 154.633 227.738 153.475 227.738 152.272H230.95L230.796 152.712C230.796 153.196 230.796 153.658 230.796 154.098C230.796 154.538 230.796 154.971 230.796 155.396C230.796 156.056 230.796 156.709 230.796 157.354C230.796 157.985 230.796 158.623 230.796 159.268C230.796 159.913 230.796 160.581 230.796 161.27C230.796 161.945 230.796 162.641 230.796 163.36C231.045 163.36 231.28 163.36 231.5 163.36C231.735 163.36 231.969 163.36 232.204 163.36C232.439 163.36 232.673 163.36 232.908 163.36C233.333 163.36 233.678 163.301 233.942 163.184C234.221 163.052 234.426 162.869 234.558 162.634C234.69 162.385 234.756 162.091 234.756 161.754V161.072C234.756 160.72 234.69 160.427 234.558 160.192C234.426 159.957 234.213 159.781 233.92 159.664C233.641 159.547 233.26 159.488 232.776 159.488H229.234L229.344 157.618H235.086V158.41C235.966 158.542 236.641 158.879 237.11 159.422C237.594 159.95 237.836 160.683 237.836 161.622V162.238C237.836 163.133 237.645 163.859 237.264 164.416C236.883 164.959 236.355 165.362 235.68 165.626C235.005 165.875 234.206 166 233.282 166ZM226.66 150.6C227.701 150.6 228.743 150.6 229.784 150.6C230.825 150.6 231.859 150.6 232.886 150.6C233.81 150.6 234.58 150.703 235.196 150.908C235.827 151.099 236.325 151.363 236.692 151.7C237.073 152.037 237.352 152.426 237.528 152.866C237.704 153.306 237.792 153.753 237.792 154.208V154.714C237.792 155.271 237.689 155.763 237.484 156.188C237.279 156.599 236.985 156.943 236.604 157.222C236.237 157.501 235.79 157.713 235.262 157.86C234.734 157.992 234.147 158.058 233.502 158.058C232.651 158.058 231.925 158.058 231.324 158.058C230.737 158.058 230.202 158.058 229.718 158.058L229.344 158.344L229.234 156.936C229.835 156.936 230.437 156.936 231.038 156.936C231.639 156.936 232.233 156.936 232.82 156.936C233.275 156.936 233.641 156.877 233.92 156.76C234.199 156.628 234.397 156.437 234.514 156.188C234.646 155.924 234.712 155.616 234.712 155.264V154.714C234.712 154.494 234.683 154.296 234.624 154.12C234.565 153.929 234.47 153.775 234.338 153.658C234.191 153.511 234.001 153.409 233.766 153.35C233.531 153.277 233.245 153.24 232.908 153.24C232.248 153.24 231.581 153.24 230.906 153.24C230.246 153.24 229.579 153.24 228.904 153.24C228.244 153.24 227.577 153.24 226.902 153.24C226.829 153.24 226.77 153.218 226.726 153.174C226.682 153.13 226.66 153.071 226.66 152.998C226.66 152.558 226.66 152.155 226.66 151.788C226.66 151.421 226.66 151.025 226.66 150.6ZM251.671 166C251.348 166 251.025 166 250.703 166C250.38 166 250.057 166 249.735 166C249.412 166 249.082 166 248.745 166C248.715 166 248.686 166 248.657 166C248.627 165.985 248.605 165.971 248.591 165.956C248.576 165.941 248.561 165.927 248.547 165.912C248.532 165.897 248.517 165.875 248.503 165.846C248.503 165.817 248.503 165.787 248.503 165.758C248.503 164.497 248.503 163.235 248.503 161.974C248.503 160.713 248.503 159.451 248.503 158.19C248.503 156.914 248.503 155.645 248.503 154.384C248.503 153.123 248.503 151.861 248.503 150.6C248.84 150.6 249.163 150.6 249.471 150.6C249.793 150.6 250.116 150.6 250.439 150.6C250.776 150.6 251.106 150.6 251.429 150.6C251.473 150.6 251.509 150.615 251.539 150.644C251.583 150.659 251.612 150.688 251.627 150.732C251.656 150.761 251.671 150.798 251.671 150.842C251.671 151.898 251.671 152.961 251.671 154.032C251.671 155.103 251.671 156.173 251.671 157.244C251.671 158.3 251.671 159.363 251.671 160.434C251.671 161.49 251.671 162.546 251.671 163.602C251.671 164.042 251.671 164.467 251.671 164.878C251.671 165.274 251.671 165.648 251.671 166ZM244.191 166.242C243.56 166.242 243.017 166.154 242.563 165.978C242.108 165.802 241.734 165.545 241.441 165.208C241.147 164.856 240.927 164.431 240.781 163.932C240.634 163.433 240.561 162.854 240.561 162.194C240.561 161.226 240.561 160.229 240.561 159.202C240.561 158.175 240.561 157.119 240.561 156.034C240.561 154.949 240.561 153.871 240.561 152.8C240.561 152.433 240.561 152.067 240.561 151.7C240.561 151.333 240.561 150.967 240.561 150.6C241.059 150.6 241.551 150.6 242.035 150.6C242.519 150.6 243.003 150.6 243.487 150.6C243.545 150.6 243.589 150.615 243.619 150.644C243.648 150.659 243.67 150.681 243.685 150.71C243.714 150.739 243.729 150.783 243.729 150.842C243.729 152.074 243.729 153.328 243.729 154.604C243.729 155.88 243.729 157.149 243.729 158.41C243.729 159.657 243.729 160.852 243.729 161.996C243.729 162.524 243.839 162.905 244.059 163.14C244.279 163.36 244.645 163.47 245.159 163.47C245.643 163.47 246.097 163.382 246.523 163.206C246.963 163.015 247.388 162.729 247.799 162.348C248.209 161.952 248.605 161.453 248.987 160.852V163.976H248.063C247.784 164.46 247.454 164.871 247.073 165.208C246.706 165.545 246.281 165.802 245.797 165.978C245.327 166.154 244.792 166.242 244.191 166.242ZM260.369 164.35H257.113L257.201 163.448C257.201 163.199 257.201 162.92 257.201 162.612C257.201 162.304 257.201 162.025 257.201 161.776C257.201 160.984 257.201 160.192 257.201 159.4C257.201 158.608 257.201 157.823 257.201 157.046C257.201 156.254 257.201 155.462 257.201 154.67C257.201 153.863 257.201 153.057 257.201 152.25H260.457L260.369 153.152C260.369 153.387 260.369 153.651 260.369 153.944C260.369 154.237 260.369 154.509 260.369 154.758C260.369 155.565 260.369 156.371 260.369 157.178C260.369 157.97 260.369 158.769 260.369 159.576C260.369 160.368 260.369 161.16 260.369 161.952C260.369 162.744 260.369 163.543 260.369 164.35ZM262.723 166H255.089C255.06 166 255.03 165.993 255.001 165.978C254.972 165.963 254.942 165.949 254.913 165.934C254.898 165.905 254.884 165.875 254.869 165.846C254.854 165.817 254.847 165.787 254.847 165.758C254.847 165.465 254.847 165.186 254.847 164.922C254.847 164.658 254.847 164.401 254.847 164.152C254.847 163.888 254.847 163.609 254.847 163.316H262.459C262.503 163.316 262.547 163.331 262.591 163.36C262.635 163.375 262.664 163.404 262.679 163.448C262.708 163.477 262.723 163.514 262.723 163.558C262.723 163.851 262.723 164.13 262.723 164.394C262.723 164.643 262.723 164.9 262.723 165.164C262.723 165.428 262.723 165.707 262.723 166ZM254.847 150.6H262.459C262.547 150.6 262.613 150.622 262.657 150.666C262.701 150.71 262.723 150.769 262.723 150.842C262.723 151.047 262.723 151.253 262.723 151.458C262.723 151.663 262.723 151.869 262.723 152.074C262.723 152.265 262.723 152.463 262.723 152.668C262.723 152.859 262.723 153.064 262.723 153.284H255.089C255.03 153.284 254.972 153.262 254.913 153.218C254.869 153.159 254.847 153.101 254.847 153.042C254.847 152.822 254.847 152.617 254.847 152.426C254.847 152.221 254.847 152.023 254.847 151.832C254.847 151.627 254.847 151.421 254.847 151.216C254.847 151.011 254.847 150.805 254.847 150.6ZM266.133 166C266.104 166 266.074 165.993 266.045 165.978C266.016 165.963 265.986 165.949 265.957 165.934C265.942 165.905 265.928 165.875 265.913 165.846C265.898 165.817 265.891 165.787 265.891 165.758C265.891 164.629 265.891 163.492 265.891 162.348C265.891 161.204 265.891 160.067 265.891 158.938C265.891 157.809 265.891 156.701 265.891 155.616C265.891 154.516 265.891 153.453 265.891 152.426C265.891 152.118 265.891 151.817 265.891 151.524C265.891 151.216 265.891 150.908 265.891 150.6C266.39 150.6 266.881 150.6 267.365 150.6C267.849 150.6 268.333 150.6 268.817 150.6C268.861 150.6 268.898 150.615 268.927 150.644C268.971 150.659 269 150.688 269.015 150.732C269.044 150.761 269.059 150.798 269.059 150.842C269.059 151.869 269.059 152.903 269.059 153.944C269.059 154.985 269.059 156.034 269.059 157.09C269.059 158.131 269.059 159.173 269.059 160.214C269.059 161.255 269.059 162.289 269.059 163.316H272.887C273.268 163.316 273.591 163.367 273.855 163.47C274.134 163.558 274.361 163.712 274.537 163.932C274.713 164.152 274.852 164.431 274.955 164.768C275.072 165.105 275.175 165.516 275.263 166H266.133ZM272.469 161.622C272.762 161.622 273.048 161.622 273.327 161.622C273.606 161.622 273.877 161.622 274.141 161.622C274.42 161.622 274.713 161.622 275.021 161.622C275.065 161.622 275.102 161.637 275.131 161.666C275.175 161.681 275.204 161.71 275.219 161.754C275.248 161.783 275.263 161.82 275.263 161.864C275.263 162.143 275.263 162.458 275.263 162.81C275.263 163.162 275.263 163.536 275.263 163.932C275.263 164.313 275.263 164.687 275.263 165.054C275.263 165.406 275.263 165.721 275.263 166C274.544 165.941 273.98 165.809 273.569 165.604C273.158 165.399 272.872 165.127 272.711 164.79C272.55 164.453 272.469 164.064 272.469 163.624C272.469 163.419 272.469 163.199 272.469 162.964C272.469 162.729 272.469 162.495 272.469 162.26C272.469 162.011 272.469 161.798 272.469 161.622ZM288.975 160.742C288.975 161.578 288.851 162.326 288.601 162.986C288.367 163.631 288.015 164.181 287.545 164.636C287.076 165.076 286.511 165.413 285.851 165.648C285.206 165.883 284.48 166 283.673 166C283.336 166 282.94 166 282.485 166C282.031 166 281.561 166 281.077 166C280.593 166 280.131 166 279.691 166C279.251 166 278.87 166 278.547 166C278.225 166 278.019 166 277.931 166C277.858 166 277.799 165.978 277.755 165.934C277.711 165.89 277.689 165.831 277.689 165.758C277.689 164.629 277.689 163.499 277.689 162.37C277.689 161.226 277.689 160.089 277.689 158.96C277.689 157.816 277.689 156.679 277.689 155.55C277.689 154.406 277.689 153.269 277.689 152.14H281.055L280.857 152.624C280.857 153.02 280.857 153.453 280.857 153.922C280.857 154.377 280.857 154.795 280.857 155.176C280.857 155.88 280.857 156.562 280.857 157.222C280.857 157.882 280.857 158.535 280.857 159.18C280.857 159.825 280.857 160.478 280.857 161.138C280.857 161.798 280.857 162.48 280.857 163.184C281.033 163.184 281.297 163.184 281.649 163.184C282.001 163.184 282.361 163.184 282.727 163.184C283.094 163.184 283.387 163.184 283.607 163.184C284.194 163.184 284.656 163.081 284.993 162.876C285.345 162.671 285.602 162.37 285.763 161.974C285.925 161.578 286.005 161.109 286.005 160.566V156.034C286.005 155.697 285.983 155.396 285.939 155.132C285.895 154.868 285.822 154.641 285.719 154.45C285.631 154.245 285.521 154.069 285.389 153.922C285.257 153.805 285.103 153.709 284.927 153.636C284.751 153.563 284.553 153.511 284.333 153.482C284.128 153.438 283.871 153.416 283.563 153.416C283.109 153.416 282.588 153.416 282.001 153.416C281.415 153.416 280.806 153.416 280.175 153.416C279.559 153.416 278.965 153.416 278.393 153.416C277.821 153.416 277.308 153.416 276.853 153.416C276.809 153.416 276.765 153.409 276.721 153.394C276.692 153.365 276.663 153.335 276.633 153.306C276.619 153.262 276.611 153.218 276.611 153.174C276.611 152.778 276.611 152.353 276.611 151.898C276.611 151.429 276.611 150.996 276.611 150.6C277.066 150.6 277.579 150.6 278.151 150.6C278.738 150.6 279.347 150.6 279.977 150.6C280.608 150.6 281.217 150.6 281.803 150.6C282.405 150.6 282.947 150.6 283.431 150.6C284.414 150.6 285.257 150.725 285.961 150.974C286.665 151.209 287.237 151.561 287.677 152.03C288.132 152.485 288.462 153.035 288.667 153.68C288.873 154.311 288.975 155.029 288.975 155.836V160.742ZM296.678 164.35H293.422L293.51 163.448C293.51 163.199 293.51 162.92 293.51 162.612C293.51 162.304 293.51 162.025 293.51 161.776C293.51 160.984 293.51 160.192 293.51 159.4C293.51 158.608 293.51 157.823 293.51 157.046C293.51 156.254 293.51 155.462 293.51 154.67C293.51 153.863 293.51 153.057 293.51 152.25H296.766L296.678 153.152C296.678 153.387 296.678 153.651 296.678 153.944C296.678 154.237 296.678 154.509 296.678 154.758C296.678 155.565 296.678 156.371 296.678 157.178C296.678 157.97 296.678 158.769 296.678 159.576C296.678 160.368 296.678 161.16 296.678 161.952C296.678 162.744 296.678 163.543 296.678 164.35ZM299.032 166H291.398C291.368 166 291.339 165.993 291.31 165.978C291.28 165.963 291.251 165.949 291.222 165.934C291.207 165.905 291.192 165.875 291.178 165.846C291.163 165.817 291.156 165.787 291.156 165.758C291.156 165.465 291.156 165.186 291.156 164.922C291.156 164.658 291.156 164.401 291.156 164.152C291.156 163.888 291.156 163.609 291.156 163.316H298.768C298.812 163.316 298.856 163.331 298.9 163.36C298.944 163.375 298.973 163.404 298.988 163.448C299.017 163.477 299.032 163.514 299.032 163.558C299.032 163.851 299.032 164.13 299.032 164.394C299.032 164.643 299.032 164.9 299.032 165.164C299.032 165.428 299.032 165.707 299.032 166ZM291.156 150.6H298.768C298.856 150.6 298.922 150.622 298.966 150.666C299.01 150.71 299.032 150.769 299.032 150.842C299.032 151.047 299.032 151.253 299.032 151.458C299.032 151.663 299.032 151.869 299.032 152.074C299.032 152.265 299.032 152.463 299.032 152.668C299.032 152.859 299.032 153.064 299.032 153.284H291.398C291.339 153.284 291.28 153.262 291.222 153.218C291.178 153.159 291.156 153.101 291.156 153.042C291.156 152.822 291.156 152.617 291.156 152.426C291.156 152.221 291.156 152.023 291.156 151.832C291.156 151.627 291.156 151.421 291.156 151.216C291.156 151.011 291.156 150.805 291.156 150.6ZM304.774 166C304.319 166 303.864 166 303.41 166C302.955 166 302.493 166 302.024 166C301.98 166 301.936 165.993 301.892 165.978C301.862 165.949 301.833 165.919 301.804 165.89C301.789 165.846 301.782 165.802 301.782 165.758C301.782 164.687 301.782 163.617 301.782 162.546C301.782 161.475 301.782 160.412 301.782 159.356C301.782 158.285 301.782 157.215 301.782 156.144C301.782 155.059 301.782 153.988 301.782 152.932C301.782 152.536 301.782 152.147 301.782 151.766C301.782 151.37 301.782 150.981 301.782 150.6C302.104 150.6 302.464 150.6 302.86 150.6C303.256 150.6 303.652 150.6 304.048 150.6C304.458 150.6 304.81 150.6 305.104 150.6C305.192 150.6 305.258 150.615 305.302 150.644C305.346 150.659 305.397 150.71 305.456 150.798C305.514 150.886 305.602 151.047 305.72 151.282C306.057 151.913 306.387 152.529 306.71 153.13C307.032 153.717 307.348 154.303 307.656 154.89C307.978 155.477 308.286 156.063 308.58 156.65C308.888 157.222 309.188 157.794 309.482 158.366C309.79 158.938 310.09 159.517 310.384 160.104C310.692 160.676 310.985 161.263 311.264 161.864L310.406 161.27H311.902L311.44 161.534C311.322 160.874 311.22 160.258 311.132 159.686C311.058 159.114 310.992 158.571 310.934 158.058C310.875 157.53 310.831 157.024 310.802 156.54C310.772 156.041 310.75 155.557 310.736 155.088C310.721 154.604 310.714 154.113 310.714 153.614C310.714 153.189 310.714 152.719 310.714 152.206C310.714 151.678 310.714 151.143 310.714 150.6C311.183 150.6 311.645 150.6 312.1 150.6C312.554 150.6 313.009 150.6 313.464 150.6C313.537 150.6 313.596 150.622 313.64 150.666C313.684 150.71 313.706 150.769 313.706 150.842C313.706 151.898 313.706 152.961 313.706 154.032C313.706 155.088 313.706 156.151 313.706 157.222C313.706 158.278 313.706 159.334 313.706 160.39C313.706 161.446 313.706 162.509 313.706 163.58C313.706 163.991 313.706 164.401 313.706 164.812C313.706 165.208 313.706 165.604 313.706 166C313.412 166 313.104 166 312.782 166C312.459 166 312.144 166 311.836 166C311.528 166 311.249 166 311 166C310.912 166 310.809 165.971 310.692 165.912C310.574 165.839 310.42 165.633 310.23 165.296C309.584 164.196 308.99 163.169 308.448 162.216C307.905 161.248 307.399 160.324 306.93 159.444C306.46 158.564 306.006 157.699 305.566 156.848C305.14 155.983 304.708 155.095 304.268 154.186L305.258 154.934H303.74L304.136 154.604C304.253 155.293 304.341 155.946 304.4 156.562C304.473 157.178 304.532 157.765 304.576 158.322C304.634 158.865 304.678 159.385 304.708 159.884C304.737 160.368 304.752 160.823 304.752 161.248C304.766 161.673 304.774 162.062 304.774 162.414C304.774 162.986 304.774 163.58 304.774 164.196C304.774 164.797 304.774 165.399 304.774 166ZM322.294 157.574H328.124C328.168 157.574 328.205 157.589 328.234 157.618C328.278 157.633 328.308 157.662 328.322 157.706C328.352 157.735 328.366 157.772 328.366 157.816V160.17H322.536C322.492 160.17 322.456 160.17 322.426 160.17C322.397 160.155 322.368 160.141 322.338 160.126C322.324 160.097 322.309 160.067 322.294 160.038C322.294 160.009 322.294 159.972 322.294 159.928C322.294 159.532 322.294 159.143 322.294 158.762C322.294 158.366 322.294 157.97 322.294 157.574ZM322.514 150.16C323.145 150.16 323.717 150.204 324.23 150.292C324.758 150.365 325.22 150.468 325.616 150.6C326.027 150.732 326.379 150.879 326.672 151.04C326.966 151.201 327.193 151.37 327.354 151.546C327.413 151.59 327.45 151.641 327.464 151.7C327.479 151.759 327.486 151.825 327.486 151.898C327.486 152.191 327.486 152.529 327.486 152.91C327.486 153.277 327.486 153.651 327.486 154.032C327.486 154.399 327.486 154.751 327.486 155.088C327.061 155.088 326.636 155.088 326.21 155.088C325.785 155.088 325.36 155.088 324.934 155.088C324.861 155.088 324.802 155.066 324.758 155.022C324.714 154.978 324.692 154.919 324.692 154.846C324.692 154.655 324.692 154.45 324.692 154.23C324.692 154.01 324.692 153.775 324.692 153.526C324.692 153.277 324.692 152.991 324.692 152.668L325.286 153.614C324.905 153.394 324.472 153.24 323.988 153.152C323.519 153.049 322.969 152.998 322.338 152.998C321.825 152.998 321.363 153.064 320.952 153.196C320.542 153.328 320.197 153.533 319.918 153.812C319.64 154.076 319.427 154.413 319.28 154.824C319.134 155.235 319.06 155.719 319.06 156.276V160.61C319.06 161.138 319.134 161.6 319.28 161.996C319.427 162.392 319.618 162.707 319.852 162.942C320.087 163.177 320.388 163.36 320.754 163.492C321.136 163.609 321.634 163.668 322.25 163.668C322.646 163.668 323.013 163.639 323.35 163.58C323.688 163.507 323.974 163.411 324.208 163.294C324.458 163.177 324.641 163.067 324.758 162.964C324.758 162.48 324.758 162.04 324.758 161.644C324.758 161.248 324.758 160.859 324.758 160.478C324.758 160.082 324.758 159.671 324.758 159.246H327.662L327.552 159.774C327.552 160.537 327.552 161.263 327.552 161.952C327.552 162.627 327.552 163.36 327.552 164.152C327.552 164.255 327.545 164.335 327.53 164.394C327.516 164.453 327.479 164.511 327.42 164.57C327.142 164.937 326.738 165.259 326.21 165.538C325.697 165.817 325.118 166.037 324.472 166.198C323.827 166.359 323.174 166.44 322.514 166.44C321.385 166.44 320.41 166.301 319.588 166.022C318.782 165.743 318.114 165.347 317.586 164.834C317.073 164.321 316.692 163.697 316.442 162.964C316.208 162.216 316.09 161.387 316.09 160.478V156.166C316.09 155.257 316.222 154.435 316.486 153.702C316.765 152.954 317.168 152.323 317.696 151.81C318.224 151.282 318.892 150.879 319.698 150.6C320.505 150.307 321.444 150.16 322.514 150.16ZM342.869 150.182C343.895 150.182 344.775 150.307 345.509 150.556C346.242 150.791 346.777 151.077 347.115 151.414C347.173 151.473 347.21 151.531 347.225 151.59C347.239 151.649 347.247 151.722 347.247 151.81C347.247 152.089 347.247 152.404 347.247 152.756C347.247 153.108 347.247 153.46 347.247 153.812C347.247 154.164 347.247 154.509 347.247 154.846C346.836 154.846 346.411 154.846 345.971 154.846C345.531 154.846 345.098 154.846 344.673 154.846C344.599 154.846 344.541 154.824 344.497 154.78C344.453 154.736 344.431 154.677 344.431 154.604C344.431 154.457 344.431 154.311 344.431 154.164C344.431 154.017 344.431 153.863 344.431 153.702C344.431 153.526 344.431 153.343 344.431 153.152C344.431 152.961 344.431 152.749 344.431 152.514L345.047 153.306C344.695 153.145 344.35 153.035 344.013 152.976C343.69 152.903 343.309 152.866 342.869 152.866C342.443 152.866 342.069 152.895 341.747 152.954C341.439 153.013 341.175 153.115 340.955 153.262C340.735 153.394 340.566 153.57 340.449 153.79C340.331 153.995 340.273 154.245 340.273 154.538V155C340.273 155.279 340.317 155.521 340.405 155.726C340.507 155.931 340.683 156.107 340.933 156.254C341.197 156.401 341.585 156.555 342.099 156.716L344.211 157.354C344.885 157.559 345.45 157.787 345.905 158.036C346.374 158.271 346.741 158.542 347.005 158.85C347.269 159.158 347.459 159.51 347.577 159.906C347.694 160.302 347.753 160.757 347.753 161.27V162.282C347.753 163.133 347.525 163.873 347.071 164.504C346.616 165.12 345.956 165.597 345.091 165.934C344.24 166.257 343.213 166.418 342.011 166.418C341.307 166.418 340.639 166.374 340.009 166.286C339.393 166.198 338.85 166.066 338.381 165.89C337.926 165.699 337.567 165.487 337.303 165.252C337.259 165.208 337.222 165.164 337.193 165.12C337.178 165.061 337.171 164.966 337.171 164.834C337.171 164.57 337.171 164.313 337.171 164.064C337.171 163.815 337.171 163.551 337.171 163.272C337.171 162.993 337.171 162.707 337.171 162.414H337.589C338.249 162.854 338.938 163.184 339.657 163.404C340.375 163.609 341.226 163.712 342.209 163.712C343.118 163.712 343.778 163.565 344.189 163.272C344.614 162.979 344.827 162.627 344.827 162.216V161.468C344.827 161.219 344.783 161.013 344.695 160.852C344.621 160.676 344.46 160.515 344.211 160.368C343.961 160.207 343.565 160.053 343.023 159.906L340.933 159.268C340.214 159.048 339.62 158.799 339.151 158.52C338.681 158.227 338.315 157.919 338.051 157.596C337.801 157.273 337.618 156.929 337.501 156.562C337.398 156.181 337.347 155.785 337.347 155.374V154.318C337.347 153.717 337.471 153.167 337.721 152.668C337.985 152.155 338.359 151.715 338.843 151.348C339.327 150.967 339.906 150.681 340.581 150.49C341.27 150.285 342.033 150.182 342.869 150.182ZM356.285 166.44C355.229 166.44 354.305 166.301 353.513 166.022C352.721 165.758 352.061 165.369 351.533 164.856C351.005 164.343 350.609 163.712 350.345 162.964C350.096 162.216 349.971 161.365 349.971 160.412V155.968C349.971 155.103 350.103 154.318 350.367 153.614C350.631 152.895 351.02 152.279 351.533 151.766C352.061 151.253 352.699 150.857 353.447 150.578C354.21 150.299 355.075 150.16 356.043 150.16C356.791 150.16 357.459 150.233 358.045 150.38C358.647 150.512 359.153 150.688 359.563 150.908C359.989 151.113 360.319 151.333 360.553 151.568C360.583 151.597 360.605 151.634 360.619 151.678C360.634 151.722 360.641 151.766 360.641 151.81C360.656 151.854 360.663 151.898 360.663 151.942C360.663 152.485 360.663 153.108 360.663 153.812C360.663 154.501 360.663 155.161 360.663 155.792C360.238 155.792 359.813 155.792 359.387 155.792C358.962 155.792 358.537 155.792 358.111 155.792C358.038 155.792 357.979 155.77 357.935 155.726C357.891 155.682 357.869 155.623 357.869 155.55C357.869 155.286 357.869 155.022 357.869 154.758C357.869 154.494 357.869 154.201 357.869 153.878C357.869 153.541 357.869 153.152 357.869 152.712L358.485 153.636C358.119 153.401 357.737 153.24 357.341 153.152C356.945 153.049 356.498 152.998 355.999 152.998C355.413 152.998 354.899 153.108 354.459 153.328C354.034 153.533 353.704 153.863 353.469 154.318C353.249 154.773 353.139 155.352 353.139 156.056V160.17C353.139 160.83 353.198 161.387 353.315 161.842C353.447 162.282 353.66 162.649 353.953 162.942C354.217 163.206 354.547 163.397 354.943 163.514C355.354 163.617 355.809 163.668 356.307 163.668C357.114 163.668 357.825 163.573 358.441 163.382C359.057 163.191 359.703 162.883 360.377 162.458H360.795C360.795 162.663 360.795 162.869 360.795 163.074C360.795 163.265 360.795 163.463 360.795 163.668C360.795 163.859 360.795 164.057 360.795 164.262C360.795 164.453 360.795 164.658 360.795 164.878C360.795 164.951 360.781 165.017 360.751 165.076C360.737 165.135 360.707 165.179 360.663 165.208C360.458 165.428 360.143 165.633 359.717 165.824C359.292 166 358.786 166.147 358.199 166.264C357.613 166.381 356.975 166.44 356.285 166.44ZM365.038 159.84H369.768C370.002 159.84 370.23 159.84 370.45 159.84C370.67 159.84 370.89 159.84 371.11 159.84L371.88 159.642L372.188 161.05L372.496 162.436H365.236C365.192 162.436 365.148 162.429 365.104 162.414C365.074 162.385 365.045 162.355 365.016 162.326C365.001 162.282 364.994 162.238 364.994 162.194L365.038 159.84ZM365.5 166C365.045 166 364.583 166 364.114 166C363.644 166 363.182 166 362.728 166C362.698 166 362.669 165.993 362.64 165.978C362.61 165.963 362.581 165.934 362.552 165.89C362.537 165.846 362.537 165.787 362.552 165.714C362.654 165.347 362.779 164.856 362.926 164.24C363.087 163.609 363.263 162.905 363.454 162.128C363.644 161.336 363.85 160.507 364.07 159.642C364.29 158.762 364.51 157.882 364.73 157.002C364.95 156.122 365.155 155.271 365.346 154.45C365.551 153.629 365.734 152.888 365.896 152.228C366.072 151.568 366.218 151.018 366.336 150.578C367.172 150.578 368.03 150.578 368.91 150.578C369.804 150.578 370.604 150.578 371.308 150.578C371.366 150.578 371.41 150.593 371.44 150.622C371.469 150.637 371.491 150.659 371.506 150.688C371.535 150.717 371.557 150.761 371.572 150.82C371.777 151.641 371.997 152.514 372.232 153.438C372.466 154.362 372.708 155.337 372.958 156.364C373.222 157.376 373.486 158.432 373.75 159.532C374.028 160.632 374.307 161.769 374.586 162.942C374.703 163.426 374.82 163.925 374.938 164.438C375.07 164.951 375.18 165.472 375.268 166C374.857 166 374.41 166 373.926 166C373.442 166 372.987 166 372.562 166C372.474 166 372.4 165.993 372.342 165.978C372.298 165.949 372.261 165.905 372.232 165.846C372.217 165.787 372.188 165.699 372.144 165.582C371.821 164.247 371.52 163.023 371.242 161.908C370.963 160.779 370.706 159.745 370.472 158.806C370.237 157.867 370.032 157.017 369.856 156.254C369.694 155.477 369.548 154.773 369.416 154.142C369.284 153.511 369.181 152.947 369.108 152.448L369.966 152.976H367.92L368.778 152.448C368.69 152.947 368.58 153.511 368.448 154.142C368.316 154.758 368.154 155.455 367.964 156.232C367.788 157.009 367.575 157.882 367.326 158.85C367.076 159.803 366.805 160.874 366.512 162.062C366.218 163.235 365.881 164.548 365.5 166ZM377.916 166C377.887 166 377.858 165.993 377.828 165.978C377.799 165.963 377.77 165.949 377.74 165.934C377.726 165.905 377.711 165.875 377.696 165.846C377.682 165.817 377.674 165.787 377.674 165.758C377.674 164.629 377.674 163.492 377.674 162.348C377.674 161.204 377.674 160.067 377.674 158.938C377.674 157.809 377.674 156.701 377.674 155.616C377.674 154.516 377.674 153.453 377.674 152.426C377.674 152.118 377.674 151.817 377.674 151.524C377.674 151.216 377.674 150.908 377.674 150.6C378.173 150.6 378.664 150.6 379.148 150.6C379.632 150.6 380.116 150.6 380.6 150.6C380.644 150.6 380.681 150.615 380.71 150.644C380.754 150.659 380.784 150.688 380.798 150.732C380.828 150.761 380.842 150.798 380.842 150.842C380.842 151.869 380.842 152.903 380.842 153.944C380.842 154.985 380.842 156.034 380.842 157.09C380.842 158.131 380.842 159.173 380.842 160.214C380.842 161.255 380.842 162.289 380.842 163.316H384.67C385.052 163.316 385.374 163.367 385.638 163.47C385.917 163.558 386.144 163.712 386.32 163.932C386.496 164.152 386.636 164.431 386.738 164.768C386.856 165.105 386.958 165.516 387.046 166H377.916ZM384.252 161.622C384.546 161.622 384.832 161.622 385.11 161.622C385.389 161.622 385.66 161.622 385.924 161.622C386.203 161.622 386.496 161.622 386.804 161.622C386.848 161.622 386.885 161.637 386.914 161.666C386.958 161.681 386.988 161.71 387.002 161.754C387.032 161.783 387.046 161.82 387.046 161.864C387.046 162.143 387.046 162.458 387.046 162.81C387.046 163.162 387.046 163.536 387.046 163.932C387.046 164.313 387.046 164.687 387.046 165.054C387.046 165.406 387.046 165.721 387.046 166C386.328 165.941 385.763 165.809 385.352 165.604C384.942 165.399 384.656 165.127 384.494 164.79C384.333 164.453 384.252 164.064 384.252 163.624C384.252 163.419 384.252 163.199 384.252 162.964C384.252 162.729 384.252 162.495 384.252 162.26C384.252 162.011 384.252 161.798 384.252 161.622ZM391.442 159.84H396.172C396.407 159.84 396.634 159.84 396.854 159.84C397.074 159.84 397.294 159.84 397.514 159.84L398.284 159.642L398.592 161.05L398.9 162.436H391.64C391.596 162.436 391.552 162.429 391.508 162.414C391.479 162.385 391.449 162.355 391.42 162.326C391.405 162.282 391.398 162.238 391.398 162.194L391.442 159.84ZM391.904 166C391.449 166 390.987 166 390.518 166C390.049 166 389.587 166 389.132 166C389.103 166 389.073 165.993 389.044 165.978C389.015 165.963 388.985 165.934 388.956 165.89C388.941 165.846 388.941 165.787 388.956 165.714C389.059 165.347 389.183 164.856 389.33 164.24C389.491 163.609 389.667 162.905 389.858 162.128C390.049 161.336 390.254 160.507 390.474 159.642C390.694 158.762 390.914 157.882 391.134 157.002C391.354 156.122 391.559 155.271 391.75 154.45C391.955 153.629 392.139 152.888 392.3 152.228C392.476 151.568 392.623 151.018 392.74 150.578C393.576 150.578 394.434 150.578 395.314 150.578C396.209 150.578 397.008 150.578 397.712 150.578C397.771 150.578 397.815 150.593 397.844 150.622C397.873 150.637 397.895 150.659 397.91 150.688C397.939 150.717 397.961 150.761 397.976 150.82C398.181 151.641 398.401 152.514 398.636 153.438C398.871 154.362 399.113 155.337 399.362 156.364C399.626 157.376 399.89 158.432 400.154 159.532C400.433 160.632 400.711 161.769 400.99 162.942C401.107 163.426 401.225 163.925 401.342 164.438C401.474 164.951 401.584 165.472 401.672 166C401.261 166 400.814 166 400.33 166C399.846 166 399.391 166 398.966 166C398.878 166 398.805 165.993 398.746 165.978C398.702 165.949 398.665 165.905 398.636 165.846C398.621 165.787 398.592 165.699 398.548 165.582C398.225 164.247 397.925 163.023 397.646 161.908C397.367 160.779 397.111 159.745 396.876 158.806C396.641 157.867 396.436 157.017 396.26 156.254C396.099 155.477 395.952 154.773 395.82 154.142C395.688 153.511 395.585 152.947 395.512 152.448L396.37 152.976H394.324L395.182 152.448C395.094 152.947 394.984 153.511 394.852 154.142C394.72 154.758 394.559 155.455 394.368 156.232C394.192 157.009 393.979 157.882 393.73 158.85C393.481 159.803 393.209 160.874 392.916 162.062C392.623 163.235 392.285 164.548 391.904 166ZM409.54 166C409.1 166 408.586 166 408 166C407.428 166 406.87 166 406.328 166C405.785 166 405.316 166 404.92 166C404.524 166 404.296 166 404.238 166C404.164 166 404.106 165.978 404.062 165.934C404.018 165.89 403.996 165.831 403.996 165.758C403.996 164.555 403.996 163.404 403.996 162.304C403.996 161.189 403.996 160.097 403.996 159.026C403.996 157.941 403.996 156.848 403.996 155.748C403.996 154.633 403.996 153.475 403.996 152.272H407.208L407.054 152.712C407.054 153.196 407.054 153.658 407.054 154.098C407.054 154.538 407.054 154.971 407.054 155.396C407.054 156.056 407.054 156.709 407.054 157.354C407.054 157.985 407.054 158.623 407.054 159.268C407.054 159.913 407.054 160.581 407.054 161.27C407.054 161.945 407.054 162.641 407.054 163.36C407.303 163.36 407.538 163.36 407.758 163.36C407.992 163.36 408.227 163.36 408.462 163.36C408.696 163.36 408.931 163.36 409.166 163.36C409.591 163.36 409.936 163.301 410.2 163.184C410.478 163.052 410.684 162.869 410.816 162.634C410.948 162.385 411.014 162.091 411.014 161.754V161.072C411.014 160.72 410.948 160.427 410.816 160.192C410.684 159.957 410.471 159.781 410.178 159.664C409.899 159.547 409.518 159.488 409.034 159.488H405.492L405.602 157.618H411.344V158.41C412.224 158.542 412.898 158.879 413.368 159.422C413.852 159.95 414.094 160.683 414.094 161.622V162.238C414.094 163.133 413.903 163.859 413.522 164.416C413.14 164.959 412.612 165.362 411.938 165.626C411.263 165.875 410.464 166 409.54 166ZM402.918 150.6C403.959 150.6 405 150.6 406.042 150.6C407.083 150.6 408.117 150.6 409.144 150.6C410.068 150.6 410.838 150.703 411.454 150.908C412.084 151.099 412.583 151.363 412.95 151.7C413.331 152.037 413.61 152.426 413.786 152.866C413.962 153.306 414.05 153.753 414.05 154.208V154.714C414.05 155.271 413.947 155.763 413.742 156.188C413.536 156.599 413.243 156.943 412.862 157.222C412.495 157.501 412.048 157.713 411.52 157.86C410.992 157.992 410.405 158.058 409.76 158.058C408.909 158.058 408.183 158.058 407.582 158.058C406.995 158.058 406.46 158.058 405.976 158.058L405.602 158.344L405.492 156.936C406.093 156.936 406.694 156.936 407.296 156.936C407.897 156.936 408.491 156.936 409.078 156.936C409.532 156.936 409.899 156.877 410.178 156.76C410.456 156.628 410.654 156.437 410.772 156.188C410.904 155.924 410.97 155.616 410.97 155.264V154.714C410.97 154.494 410.94 154.296 410.882 154.12C410.823 153.929 410.728 153.775 410.596 153.658C410.449 153.511 410.258 153.409 410.024 153.35C409.789 153.277 409.503 153.24 409.166 153.24C408.506 153.24 407.838 153.24 407.164 153.24C406.504 153.24 405.836 153.24 405.162 153.24C404.502 153.24 403.834 153.24 403.16 153.24C403.086 153.24 403.028 153.218 402.984 153.174C402.94 153.13 402.918 153.071 402.918 152.998C402.918 152.558 402.918 152.155 402.918 151.788C402.918 151.421 402.918 151.025 402.918 150.6ZM417.297 166C417.268 166 417.239 165.993 417.209 165.978C417.18 165.963 417.151 165.949 417.121 165.934C417.107 165.905 417.092 165.875 417.077 165.846C417.063 165.817 417.055 165.787 417.055 165.758C417.055 164.629 417.055 163.492 417.055 162.348C417.055 161.204 417.055 160.067 417.055 158.938C417.055 157.809 417.055 156.701 417.055 155.616C417.055 154.516 417.055 153.453 417.055 152.426C417.055 152.118 417.055 151.817 417.055 151.524C417.055 151.216 417.055 150.908 417.055 150.6C417.554 150.6 418.045 150.6 418.529 150.6C419.013 150.6 419.497 150.6 419.981 150.6C420.025 150.6 420.062 150.615 420.091 150.644C420.135 150.659 420.165 150.688 420.179 150.732C420.209 150.761 420.223 150.798 420.223 150.842C420.223 151.869 420.223 152.903 420.223 153.944C420.223 154.985 420.223 156.034 420.223 157.09C420.223 158.131 420.223 159.173 420.223 160.214C420.223 161.255 420.223 162.289 420.223 163.316H424.051C424.433 163.316 424.755 163.367 425.019 163.47C425.298 163.558 425.525 163.712 425.701 163.932C425.877 164.152 426.017 164.431 426.119 164.768C426.237 165.105 426.339 165.516 426.427 166H417.297ZM423.633 161.622C423.927 161.622 424.213 161.622 424.491 161.622C424.77 161.622 425.041 161.622 425.305 161.622C425.584 161.622 425.877 161.622 426.185 161.622C426.229 161.622 426.266 161.637 426.295 161.666C426.339 161.681 426.369 161.71 426.383 161.754C426.413 161.783 426.427 161.82 426.427 161.864C426.427 162.143 426.427 162.458 426.427 162.81C426.427 163.162 426.427 163.536 426.427 163.932C426.427 164.313 426.427 164.687 426.427 165.054C426.427 165.406 426.427 165.721 426.427 166C425.709 165.941 425.144 165.809 424.733 165.604C424.323 165.399 424.037 165.127 423.875 164.79C423.714 164.453 423.633 164.064 423.633 163.624C423.633 163.419 423.633 163.199 423.633 162.964C423.633 162.729 423.633 162.495 423.633 162.26C423.633 162.011 423.633 161.798 423.633 161.622ZM427.753 150.6H437.851C437.895 150.6 437.932 150.615 437.961 150.644C437.991 150.659 438.02 150.688 438.049 150.732C438.079 150.761 438.093 150.798 438.093 150.842C438.093 151.297 438.093 151.707 438.093 152.074C438.093 152.426 438.093 152.829 438.093 153.284H427.995C427.951 153.284 427.907 153.277 427.863 153.262C427.834 153.233 427.805 153.203 427.775 153.174C427.761 153.13 427.753 153.086 427.753 153.042C427.753 152.587 427.753 152.177 427.753 151.81C427.753 151.443 427.753 151.04 427.753 150.6ZM430.767 156.958H436.553C436.597 156.958 436.634 156.973 436.663 157.002C436.707 157.031 436.737 157.061 436.751 157.09C436.781 157.119 436.795 157.156 436.795 157.2C436.795 157.508 436.795 157.794 436.795 158.058C436.795 158.307 436.795 158.557 436.795 158.806C436.795 159.041 436.795 159.29 436.795 159.554H430.767V156.958ZM429.073 166C429.029 166 428.993 165.993 428.963 165.978C428.934 165.963 428.905 165.949 428.875 165.934C428.861 165.905 428.846 165.875 428.831 165.846C428.817 165.817 428.809 165.787 428.809 165.758C428.809 165.362 428.809 164.79 428.809 164.042C428.809 163.279 428.809 162.414 428.809 161.446C428.809 160.463 428.809 159.437 428.809 158.366C428.809 157.281 428.809 156.21 428.809 155.154C428.809 154.083 428.809 153.101 428.809 152.206H432.153L431.977 152.69C431.977 153.027 431.977 153.372 431.977 153.724C431.977 154.076 431.977 154.428 431.977 154.78C431.977 155.455 431.977 156.151 431.977 156.87C431.977 157.589 431.977 158.307 431.977 159.026C431.977 159.745 431.977 160.471 431.977 161.204C431.977 161.923 431.977 162.627 431.977 163.316H437.851C437.925 163.316 437.983 163.338 438.027 163.382C438.071 163.426 438.093 163.485 438.093 163.558C438.093 163.983 438.093 164.394 438.093 164.79C438.093 165.171 438.093 165.575 438.093 166H429.073ZM449.085 159.84H453.815C454.049 159.84 454.277 159.84 454.497 159.84C454.717 159.84 454.937 159.84 455.157 159.84L455.927 159.642L456.235 161.05L456.543 162.436H449.283C449.239 162.436 449.195 162.429 449.151 162.414C449.121 162.385 449.092 162.355 449.063 162.326C449.048 162.282 449.041 162.238 449.041 162.194L449.085 159.84ZM449.547 166C449.092 166 448.63 166 448.161 166C447.691 166 447.229 166 446.775 166C446.745 166 446.716 165.993 446.687 165.978C446.657 165.963 446.628 165.934 446.599 165.89C446.584 165.846 446.584 165.787 446.599 165.714C446.701 165.347 446.826 164.856 446.973 164.24C447.134 163.609 447.31 162.905 447.501 162.128C447.691 161.336 447.897 160.507 448.117 159.642C448.337 158.762 448.557 157.882 448.777 157.002C448.997 156.122 449.202 155.271 449.393 154.45C449.598 153.629 449.781 152.888 449.943 152.228C450.119 151.568 450.265 151.018 450.383 150.578C451.219 150.578 452.077 150.578 452.957 150.578C453.851 150.578 454.651 150.578 455.355 150.578C455.413 150.578 455.457 150.593 455.487 150.622C455.516 150.637 455.538 150.659 455.553 150.688C455.582 150.717 455.604 150.761 455.619 150.82C455.824 151.641 456.044 152.514 456.279 153.438C456.513 154.362 456.755 155.337 457.005 156.364C457.269 157.376 457.533 158.432 457.797 159.532C458.075 160.632 458.354 161.769 458.633 162.942C458.75 163.426 458.867 163.925 458.985 164.438C459.117 164.951 459.227 165.472 459.315 166C458.904 166 458.457 166 457.973 166C457.489 166 457.034 166 456.609 166C456.521 166 456.447 165.993 456.389 165.978C456.345 165.949 456.308 165.905 456.279 165.846C456.264 165.787 456.235 165.699 456.191 165.582C455.868 164.247 455.567 163.023 455.289 161.908C455.01 160.779 454.753 159.745 454.519 158.806C454.284 157.867 454.079 157.017 453.903 156.254C453.741 155.477 453.595 154.773 453.463 154.142C453.331 153.511 453.228 152.947 453.155 152.448L454.013 152.976H451.967L452.825 152.448C452.737 152.947 452.627 153.511 452.495 154.142C452.363 154.758 452.201 155.455 452.011 156.232C451.835 157.009 451.622 157.882 451.373 158.85C451.123 159.803 450.852 160.874 450.559 162.062C450.265 163.235 449.928 164.548 449.547 166ZM464.295 166C463.841 166 463.386 166 462.931 166C462.477 166 462.015 166 461.545 166C461.501 166 461.457 165.993 461.413 165.978C461.384 165.949 461.355 165.919 461.325 165.89C461.311 165.846 461.303 165.802 461.303 165.758C461.303 164.687 461.303 163.617 461.303 162.546C461.303 161.475 461.303 160.412 461.303 159.356C461.303 158.285 461.303 157.215 461.303 156.144C461.303 155.059 461.303 153.988 461.303 152.932C461.303 152.536 461.303 152.147 461.303 151.766C461.303 151.37 461.303 150.981 461.303 150.6C461.626 150.6 461.985 150.6 462.381 150.6C462.777 150.6 463.173 150.6 463.569 150.6C463.98 150.6 464.332 150.6 464.625 150.6C464.713 150.6 464.779 150.615 464.823 150.644C464.867 150.659 464.919 150.71 464.977 150.798C465.036 150.886 465.124 151.047 465.241 151.282C465.579 151.913 465.909 152.529 466.231 153.13C466.554 153.717 466.869 154.303 467.177 154.89C467.5 155.477 467.808 156.063 468.101 156.65C468.409 157.222 468.71 157.794 469.003 158.366C469.311 158.938 469.612 159.517 469.905 160.104C470.213 160.676 470.507 161.263 470.785 161.864L469.927 161.27H471.423L470.961 161.534C470.844 160.874 470.741 160.258 470.653 159.686C470.58 159.114 470.514 158.571 470.455 158.058C470.397 157.53 470.353 157.024 470.323 156.54C470.294 156.041 470.272 155.557 470.257 155.088C470.243 154.604 470.235 154.113 470.235 153.614C470.235 153.189 470.235 152.719 470.235 152.206C470.235 151.678 470.235 151.143 470.235 150.6C470.705 150.6 471.167 150.6 471.621 150.6C472.076 150.6 472.531 150.6 472.985 150.6C473.059 150.6 473.117 150.622 473.161 150.666C473.205 150.71 473.227 150.769 473.227 150.842C473.227 151.898 473.227 152.961 473.227 154.032C473.227 155.088 473.227 156.151 473.227 157.222C473.227 158.278 473.227 159.334 473.227 160.39C473.227 161.446 473.227 162.509 473.227 163.58C473.227 163.991 473.227 164.401 473.227 164.812C473.227 165.208 473.227 165.604 473.227 166C472.934 166 472.626 166 472.303 166C471.981 166 471.665 166 471.357 166C471.049 166 470.771 166 470.521 166C470.433 166 470.331 165.971 470.213 165.912C470.096 165.839 469.942 165.633 469.751 165.296C469.106 164.196 468.512 163.169 467.969 162.216C467.427 161.248 466.921 160.324 466.451 159.444C465.982 158.564 465.527 157.699 465.087 156.848C464.662 155.983 464.229 155.095 463.789 154.186L464.779 154.934H463.261L463.657 154.604C463.775 155.293 463.863 155.946 463.921 156.562C463.995 157.178 464.053 157.765 464.097 158.322C464.156 158.865 464.2 159.385 464.229 159.884C464.259 160.368 464.273 160.823 464.273 161.248C464.288 161.673 464.295 162.062 464.295 162.414C464.295 162.986 464.295 163.58 464.295 164.196C464.295 164.797 464.295 165.399 464.295 166ZM477.702 159.84H482.432C482.666 159.84 482.894 159.84 483.114 159.84C483.334 159.84 483.554 159.84 483.774 159.84L484.544 159.642L484.852 161.05L485.16 162.436H477.9C477.856 162.436 477.812 162.429 477.768 162.414C477.738 162.385 477.709 162.355 477.68 162.326C477.665 162.282 477.658 162.238 477.658 162.194L477.702 159.84ZM478.164 166C477.709 166 477.247 166 476.778 166C476.308 166 475.846 166 475.392 166C475.362 166 475.333 165.993 475.304 165.978C475.274 165.963 475.245 165.934 475.216 165.89C475.201 165.846 475.201 165.787 475.216 165.714C475.318 165.347 475.443 164.856 475.59 164.24C475.751 163.609 475.927 162.905 476.118 162.128C476.308 161.336 476.514 160.507 476.734 159.642C476.954 158.762 477.174 157.882 477.394 157.002C477.614 156.122 477.819 155.271 478.01 154.45C478.215 153.629 478.398 152.888 478.56 152.228C478.736 151.568 478.882 151.018 479 150.578C479.836 150.578 480.694 150.578 481.574 150.578C482.468 150.578 483.268 150.578 483.972 150.578C484.03 150.578 484.074 150.593 484.104 150.622C484.133 150.637 484.155 150.659 484.17 150.688C484.199 150.717 484.221 150.761 484.236 150.82C484.441 151.641 484.661 152.514 484.896 153.438C485.13 154.362 485.372 155.337 485.622 156.364C485.886 157.376 486.15 158.432 486.414 159.532C486.692 160.632 486.971 161.769 487.25 162.942C487.367 163.426 487.484 163.925 487.602 164.438C487.734 164.951 487.844 165.472 487.932 166C487.521 166 487.074 166 486.59 166C486.106 166 485.651 166 485.226 166C485.138 166 485.064 165.993 485.006 165.978C484.962 165.949 484.925 165.905 484.896 165.846C484.881 165.787 484.852 165.699 484.808 165.582C484.485 164.247 484.184 163.023 483.906 161.908C483.627 160.779 483.37 159.745 483.136 158.806C482.901 157.867 482.696 157.017 482.52 156.254C482.358 155.477 482.212 154.773 482.08 154.142C481.948 153.511 481.845 152.947 481.772 152.448L482.63 152.976H480.584L481.442 152.448C481.354 152.947 481.244 153.511 481.112 154.142C480.98 154.758 480.818 155.455 480.628 156.232C480.452 157.009 480.239 157.882 479.99 158.85C479.74 159.803 479.469 160.874 479.176 162.062C478.882 163.235 478.545 164.548 478.164 166ZM490.58 166C490.551 166 490.522 165.993 490.492 165.978C490.463 165.963 490.434 165.949 490.404 165.934C490.39 165.905 490.375 165.875 490.36 165.846C490.346 165.817 490.338 165.787 490.338 165.758C490.338 164.629 490.338 163.492 490.338 162.348C490.338 161.204 490.338 160.067 490.338 158.938C490.338 157.809 490.338 156.701 490.338 155.616C490.338 154.516 490.338 153.453 490.338 152.426C490.338 152.118 490.338 151.817 490.338 151.524C490.338 151.216 490.338 150.908 490.338 150.6C490.837 150.6 491.328 150.6 491.812 150.6C492.296 150.6 492.78 150.6 493.264 150.6C493.308 150.6 493.345 150.615 493.374 150.644C493.418 150.659 493.448 150.688 493.462 150.732C493.492 150.761 493.506 150.798 493.506 150.842C493.506 151.869 493.506 152.903 493.506 153.944C493.506 154.985 493.506 156.034 493.506 157.09C493.506 158.131 493.506 159.173 493.506 160.214C493.506 161.255 493.506 162.289 493.506 163.316H497.334C497.716 163.316 498.038 163.367 498.302 163.47C498.581 163.558 498.808 163.712 498.984 163.932C499.16 164.152 499.3 164.431 499.402 164.768C499.52 165.105 499.622 165.516 499.71 166H490.58ZM496.916 161.622C497.21 161.622 497.496 161.622 497.774 161.622C498.053 161.622 498.324 161.622 498.588 161.622C498.867 161.622 499.16 161.622 499.468 161.622C499.512 161.622 499.549 161.637 499.578 161.666C499.622 161.681 499.652 161.71 499.666 161.754C499.696 161.783 499.71 161.82 499.71 161.864C499.71 162.143 499.71 162.458 499.71 162.81C499.71 163.162 499.71 163.536 499.71 163.932C499.71 164.313 499.71 164.687 499.71 165.054C499.71 165.406 499.71 165.721 499.71 166C498.992 165.941 498.427 165.809 498.016 165.604C497.606 165.399 497.32 165.127 497.158 164.79C496.997 164.453 496.916 164.064 496.916 163.624C496.916 163.419 496.916 163.199 496.916 162.964C496.916 162.729 496.916 162.495 496.916 162.26C496.916 162.011 496.916 161.798 496.916 161.622ZM507.371 166C507.048 166 506.718 166 506.381 166C506.058 166 505.735 166 505.413 166C505.105 166 504.782 166 504.445 166C504.401 166 504.357 165.993 504.313 165.978C504.283 165.949 504.254 165.919 504.225 165.89C504.21 165.861 504.203 165.817 504.203 165.758C504.203 164.717 504.203 163.646 504.203 162.546C504.203 161.446 504.203 160.375 504.203 159.334H507.371C507.371 159.803 507.371 160.295 507.371 160.808C507.371 161.321 507.371 161.835 507.371 162.348C507.371 162.847 507.371 163.331 507.371 163.8C507.371 164.167 507.371 164.533 507.371 164.9C507.371 165.267 507.371 165.633 507.371 166ZM499.077 150.6C499.605 150.6 500.111 150.6 500.595 150.6C501.093 150.6 501.57 150.6 502.025 150.6C502.127 150.6 502.208 150.615 502.267 150.644C502.34 150.673 502.399 150.725 502.443 150.798C502.501 150.857 502.56 150.952 502.619 151.084C502.941 151.729 503.249 152.36 503.543 152.976C503.836 153.592 504.115 154.215 504.379 154.846C504.657 155.477 504.914 156.129 505.149 156.804C505.398 157.479 505.633 158.19 505.853 158.938L505.061 158.19H506.733L505.919 158.938C506.139 158.161 506.359 157.435 506.579 156.76C506.813 156.071 507.063 155.403 507.327 154.758C507.591 154.098 507.877 153.431 508.185 152.756C508.493 152.081 508.83 151.363 509.197 150.6C509.71 150.6 510.201 150.6 510.671 150.6C511.155 150.6 511.617 150.6 512.057 150.6C512.189 150.6 512.277 150.644 512.321 150.732C512.379 150.805 512.365 150.937 512.277 151.128C511.954 151.759 511.624 152.411 511.287 153.086C510.964 153.746 510.627 154.421 510.275 155.11C509.923 155.785 509.563 156.474 509.197 157.178C508.845 157.882 508.493 158.579 508.141 159.268C507.789 159.943 507.437 160.603 507.085 161.248C506.469 161.248 505.977 161.248 505.611 161.248C505.259 161.248 505.002 161.241 504.841 161.226C504.679 161.211 504.569 161.182 504.511 161.138C504.452 161.094 504.401 161.043 504.357 160.984C504.269 160.823 504.093 160.478 503.829 159.95C503.565 159.422 503.235 158.777 502.839 158.014C502.457 157.251 502.047 156.437 501.607 155.572C501.167 154.692 500.727 153.819 500.287 152.954C499.861 152.089 499.458 151.304 499.077 150.6ZM513.401 150.6H524.093C524.167 150.6 524.225 150.622 524.269 150.666C524.328 150.71 524.357 150.769 524.357 150.842C524.357 151.297 524.357 151.707 524.357 152.074C524.357 152.426 524.357 152.829 524.357 153.284H513.665C513.621 153.284 513.577 153.277 513.533 153.262C513.504 153.233 513.475 153.203 513.445 153.174C513.416 153.13 513.401 153.086 513.401 153.042C513.401 152.587 513.401 152.177 513.401 151.81C513.401 151.443 513.401 151.04 513.401 150.6ZM520.463 166C519.979 166 519.495 166 519.011 166C518.527 166 518.036 166 517.537 166C517.464 166 517.405 165.978 517.361 165.934C517.317 165.89 517.295 165.831 517.295 165.758C517.295 164.57 517.295 163.419 517.295 162.304C517.295 161.189 517.295 160.075 517.295 158.96C517.295 157.831 517.295 156.701 517.295 155.572C517.295 154.428 517.295 153.277 517.295 152.118H520.705L520.463 152.712C520.463 153.005 520.463 153.321 520.463 153.658C520.463 153.981 520.463 154.296 520.463 154.604C520.463 154.912 520.463 155.205 520.463 155.484C520.463 156.423 520.463 157.339 520.463 158.234C520.463 159.114 520.463 160.016 520.463 160.94C520.463 161.849 520.463 162.81 520.463 163.822C520.463 164.233 520.463 164.621 520.463 164.988C520.463 165.355 520.463 165.692 520.463 166ZM532.125 164.35H528.869L528.957 163.448C528.957 163.199 528.957 162.92 528.957 162.612C528.957 162.304 528.957 162.025 528.957 161.776C528.957 160.984 528.957 160.192 528.957 159.4C528.957 158.608 528.957 157.823 528.957 157.046C528.957 156.254 528.957 155.462 528.957 154.67C528.957 153.863 528.957 153.057 528.957 152.25H532.213L532.125 153.152C532.125 153.387 532.125 153.651 532.125 153.944C532.125 154.237 532.125 154.509 532.125 154.758C532.125 155.565 532.125 156.371 532.125 157.178C532.125 157.97 532.125 158.769 532.125 159.576C532.125 160.368 532.125 161.16 532.125 161.952C532.125 162.744 532.125 163.543 532.125 164.35ZM534.479 166H526.845C526.816 166 526.786 165.993 526.757 165.978C526.728 165.963 526.698 165.949 526.669 165.934C526.654 165.905 526.64 165.875 526.625 165.846C526.61 165.817 526.603 165.787 526.603 165.758C526.603 165.465 526.603 165.186 526.603 164.922C526.603 164.658 526.603 164.401 526.603 164.152C526.603 163.888 526.603 163.609 526.603 163.316H534.215C534.259 163.316 534.303 163.331 534.347 163.36C534.391 163.375 534.42 163.404 534.435 163.448C534.464 163.477 534.479 163.514 534.479 163.558C534.479 163.851 534.479 164.13 534.479 164.394C534.479 164.643 534.479 164.9 534.479 165.164C534.479 165.428 534.479 165.707 534.479 166ZM526.603 150.6H534.215C534.303 150.6 534.369 150.622 534.413 150.666C534.457 150.71 534.479 150.769 534.479 150.842C534.479 151.047 534.479 151.253 534.479 151.458C534.479 151.663 534.479 151.869 534.479 152.074C534.479 152.265 534.479 152.463 534.479 152.668C534.479 152.859 534.479 153.064 534.479 153.284H526.845C526.786 153.284 526.728 153.262 526.669 153.218C526.625 153.159 526.603 153.101 526.603 153.042C526.603 152.822 526.603 152.617 526.603 152.426C526.603 152.221 526.603 152.023 526.603 151.832C526.603 151.627 526.603 151.421 526.603 151.216C526.603 151.011 526.603 150.805 526.603 150.6ZM542.877 166.44C541.821 166.44 540.897 166.301 540.105 166.022C539.313 165.758 538.653 165.369 538.125 164.856C537.597 164.343 537.201 163.712 536.937 162.964C536.688 162.216 536.563 161.365 536.563 160.412V155.968C536.563 155.103 536.695 154.318 536.959 153.614C537.223 152.895 537.612 152.279 538.125 151.766C538.653 151.253 539.291 150.857 540.039 150.578C540.802 150.299 541.667 150.16 542.635 150.16C543.383 150.16 544.05 150.233 544.637 150.38C545.238 150.512 545.744 150.688 546.155 150.908C546.58 151.113 546.91 151.333 547.145 151.568C547.174 151.597 547.196 151.634 547.211 151.678C547.226 151.722 547.233 151.766 547.233 151.81C547.248 151.854 547.255 151.898 547.255 151.942C547.255 152.485 547.255 153.108 547.255 153.812C547.255 154.501 547.255 155.161 547.255 155.792C546.83 155.792 546.404 155.792 545.979 155.792C545.554 155.792 545.128 155.792 544.703 155.792C544.63 155.792 544.571 155.77 544.527 155.726C544.483 155.682 544.461 155.623 544.461 155.55C544.461 155.286 544.461 155.022 544.461 154.758C544.461 154.494 544.461 154.201 544.461 153.878C544.461 153.541 544.461 153.152 544.461 152.712L545.077 153.636C544.71 153.401 544.329 153.24 543.933 153.152C543.537 153.049 543.09 152.998 542.591 152.998C542.004 152.998 541.491 153.108 541.051 153.328C540.626 153.533 540.296 153.863 540.061 154.318C539.841 154.773 539.731 155.352 539.731 156.056V160.17C539.731 160.83 539.79 161.387 539.907 161.842C540.039 162.282 540.252 162.649 540.545 162.942C540.809 163.206 541.139 163.397 541.535 163.514C541.946 163.617 542.4 163.668 542.899 163.668C543.706 163.668 544.417 163.573 545.033 163.382C545.649 163.191 546.294 162.883 546.969 162.458H547.387C547.387 162.663 547.387 162.869 547.387 163.074C547.387 163.265 547.387 163.463 547.387 163.668C547.387 163.859 547.387 164.057 547.387 164.262C547.387 164.453 547.387 164.658 547.387 164.878C547.387 164.951 547.372 165.017 547.343 165.076C547.328 165.135 547.299 165.179 547.255 165.208C547.05 165.428 546.734 165.633 546.309 165.824C545.884 166 545.378 166.147 544.791 166.264C544.204 166.381 543.566 166.44 542.877 166.44ZM551.63 159.84H556.36C556.594 159.84 556.822 159.84 557.042 159.84C557.262 159.84 557.482 159.84 557.702 159.84L558.472 159.642L558.78 161.05L559.088 162.436H551.828C551.784 162.436 551.74 162.429 551.696 162.414C551.666 162.385 551.637 162.355 551.608 162.326C551.593 162.282 551.586 162.238 551.586 162.194L551.63 159.84ZM552.092 166C551.637 166 551.175 166 550.706 166C550.236 166 549.774 166 549.32 166C549.29 166 549.261 165.993 549.232 165.978C549.202 165.963 549.173 165.934 549.144 165.89C549.129 165.846 549.129 165.787 549.144 165.714C549.246 165.347 549.371 164.856 549.518 164.24C549.679 163.609 549.855 162.905 550.046 162.128C550.236 161.336 550.442 160.507 550.662 159.642C550.882 158.762 551.102 157.882 551.322 157.002C551.542 156.122 551.747 155.271 551.938 154.45C552.143 153.629 552.326 152.888 552.488 152.228C552.664 151.568 552.81 151.018 552.928 150.578C553.764 150.578 554.622 150.578 555.502 150.578C556.396 150.578 557.196 150.578 557.9 150.578C557.958 150.578 558.002 150.593 558.032 150.622C558.061 150.637 558.083 150.659 558.098 150.688C558.127 150.717 558.149 150.761 558.164 150.82C558.369 151.641 558.589 152.514 558.824 153.438C559.058 154.362 559.3 155.337 559.55 156.364C559.814 157.376 560.078 158.432 560.342 159.532C560.62 160.632 560.899 161.769 561.178 162.942C561.295 163.426 561.412 163.925 561.53 164.438C561.662 164.951 561.772 165.472 561.86 166C561.449 166 561.002 166 560.518 166C560.034 166 559.579 166 559.154 166C559.066 166 558.992 165.993 558.934 165.978C558.89 165.949 558.853 165.905 558.824 165.846C558.809 165.787 558.78 165.699 558.736 165.582C558.413 164.247 558.112 163.023 557.834 161.908C557.555 160.779 557.298 159.745 557.064 158.806C556.829 157.867 556.624 157.017 556.448 156.254C556.286 155.477 556.14 154.773 556.008 154.142C555.876 153.511 555.773 152.947 555.7 152.448L556.558 152.976H554.512L555.37 152.448C555.282 152.947 555.172 153.511 555.04 154.142C554.908 154.758 554.746 155.455 554.556 156.232C554.38 157.009 554.167 157.882 553.918 158.85C553.668 159.803 553.397 160.874 553.104 162.062C552.81 163.235 552.473 164.548 552.092 166ZM564.508 166C564.479 166 564.449 165.993 564.42 165.978C564.391 165.963 564.361 165.949 564.332 165.934C564.317 165.905 564.303 165.875 564.288 165.846C564.273 165.817 564.266 165.787 564.266 165.758C564.266 164.629 564.266 163.492 564.266 162.348C564.266 161.204 564.266 160.067 564.266 158.938C564.266 157.809 564.266 156.701 564.266 155.616C564.266 154.516 564.266 153.453 564.266 152.426C564.266 152.118 564.266 151.817 564.266 151.524C564.266 151.216 564.266 150.908 564.266 150.6C564.765 150.6 565.256 150.6 565.74 150.6C566.224 150.6 566.708 150.6 567.192 150.6C567.236 150.6 567.273 150.615 567.302 150.644C567.346 150.659 567.375 150.688 567.39 150.732C567.419 150.761 567.434 150.798 567.434 150.842C567.434 151.869 567.434 152.903 567.434 153.944C567.434 154.985 567.434 156.034 567.434 157.09C567.434 158.131 567.434 159.173 567.434 160.214C567.434 161.255 567.434 162.289 567.434 163.316H571.262C571.643 163.316 571.966 163.367 572.23 163.47C572.509 163.558 572.736 163.712 572.912 163.932C573.088 164.152 573.227 164.431 573.33 164.768C573.447 165.105 573.55 165.516 573.638 166H564.508ZM570.844 161.622C571.137 161.622 571.423 161.622 571.702 161.622C571.981 161.622 572.252 161.622 572.516 161.622C572.795 161.622 573.088 161.622 573.396 161.622C573.44 161.622 573.477 161.637 573.506 161.666C573.55 161.681 573.579 161.71 573.594 161.754C573.623 161.783 573.638 161.82 573.638 161.864C573.638 162.143 573.638 162.458 573.638 162.81C573.638 163.162 573.638 163.536 573.638 163.932C573.638 164.313 573.638 164.687 573.638 165.054C573.638 165.406 573.638 165.721 573.638 166C572.919 165.941 572.355 165.809 571.944 165.604C571.533 165.399 571.247 165.127 571.086 164.79C570.925 164.453 570.844 164.064 570.844 163.624C570.844 163.419 570.844 163.199 570.844 162.964C570.844 162.729 570.844 162.495 570.844 162.26C570.844 162.011 570.844 161.798 570.844 161.622ZM588.414 150.182C589.44 150.182 590.32 150.307 591.054 150.556C591.787 150.791 592.322 151.077 592.66 151.414C592.718 151.473 592.755 151.531 592.77 151.59C592.784 151.649 592.792 151.722 592.792 151.81C592.792 152.089 592.792 152.404 592.792 152.756C592.792 153.108 592.792 153.46 592.792 153.812C592.792 154.164 592.792 154.509 592.792 154.846C592.381 154.846 591.956 154.846 591.516 154.846C591.076 154.846 590.643 154.846 590.218 154.846C590.144 154.846 590.086 154.824 590.042 154.78C589.998 154.736 589.976 154.677 589.976 154.604C589.976 154.457 589.976 154.311 589.976 154.164C589.976 154.017 589.976 153.863 589.976 153.702C589.976 153.526 589.976 153.343 589.976 153.152C589.976 152.961 589.976 152.749 589.976 152.514L590.592 153.306C590.24 153.145 589.895 153.035 589.558 152.976C589.235 152.903 588.854 152.866 588.414 152.866C587.988 152.866 587.614 152.895 587.292 152.954C586.984 153.013 586.72 153.115 586.5 153.262C586.28 153.394 586.111 153.57 585.994 153.79C585.876 153.995 585.818 154.245 585.818 154.538V155C585.818 155.279 585.862 155.521 585.95 155.726C586.052 155.931 586.228 156.107 586.478 156.254C586.742 156.401 587.13 156.555 587.644 156.716L589.756 157.354C590.43 157.559 590.995 157.787 591.45 158.036C591.919 158.271 592.286 158.542 592.55 158.85C592.814 159.158 593.004 159.51 593.122 159.906C593.239 160.302 593.298 160.757 593.298 161.27V162.282C593.298 163.133 593.07 163.873 592.616 164.504C592.161 165.12 591.501 165.597 590.636 165.934C589.785 166.257 588.758 166.418 587.556 166.418C586.852 166.418 586.184 166.374 585.554 166.286C584.938 166.198 584.395 166.066 583.926 165.89C583.471 165.699 583.112 165.487 582.848 165.252C582.804 165.208 582.767 165.164 582.738 165.12C582.723 165.061 582.716 164.966 582.716 164.834C582.716 164.57 582.716 164.313 582.716 164.064C582.716 163.815 582.716 163.551 582.716 163.272C582.716 162.993 582.716 162.707 582.716 162.414H583.134C583.794 162.854 584.483 163.184 585.202 163.404C585.92 163.609 586.771 163.712 587.754 163.712C588.663 163.712 589.323 163.565 589.734 163.272C590.159 162.979 590.372 162.627 590.372 162.216V161.468C590.372 161.219 590.328 161.013 590.24 160.852C590.166 160.676 590.005 160.515 589.756 160.368C589.506 160.207 589.11 160.053 588.568 159.906L586.478 159.268C585.759 159.048 585.165 158.799 584.696 158.52C584.226 158.227 583.86 157.919 583.596 157.596C583.346 157.273 583.163 156.929 583.046 156.562C582.943 156.181 582.892 155.785 582.892 155.374V154.318C582.892 153.717 583.016 153.167 583.266 152.668C583.53 152.155 583.904 151.715 584.388 151.348C584.872 150.967 585.451 150.681 586.126 150.49C586.815 150.285 587.578 150.182 588.414 150.182ZM601.478 150.16C602.578 150.16 603.568 150.395 604.448 150.864C605.343 151.319 606.047 152.001 606.56 152.91C607.088 153.819 607.352 154.956 607.352 156.32V160.522C607.352 161.783 607.095 162.854 606.582 163.734C606.069 164.614 605.372 165.289 604.492 165.758C603.612 166.213 602.607 166.44 601.478 166.44C600.378 166.44 599.381 166.213 598.486 165.758C597.606 165.289 596.902 164.614 596.374 163.734C595.861 162.854 595.604 161.783 595.604 160.522V156.32C595.604 154.956 595.875 153.819 596.418 152.91C596.961 152.001 597.679 151.319 598.574 150.864C599.483 150.395 600.451 150.16 601.478 150.16ZM598.574 160.324C598.574 161.16 598.677 161.783 598.882 162.194C599.087 162.605 599.3 162.905 599.52 163.096C599.74 163.272 600.019 163.419 600.356 163.536C600.708 163.653 601.111 163.712 601.566 163.712C602.123 163.712 602.607 163.587 603.018 163.338C603.429 163.089 603.759 162.707 604.008 162.194C604.257 161.681 604.382 161.05 604.382 160.302V156.078C604.382 155.609 604.353 155.22 604.294 154.912C604.235 154.589 604.147 154.318 604.03 154.098C603.913 153.878 603.766 153.687 603.59 153.526C603.37 153.306 603.091 153.137 602.754 153.02C602.417 152.903 602.006 152.844 601.522 152.844C600.847 152.844 600.29 152.976 599.85 153.24C599.425 153.504 599.102 153.878 598.882 154.362C598.677 154.846 598.574 155.418 598.574 156.078V160.324ZM610.485 166C610.455 166 610.426 165.993 610.397 165.978C610.367 165.963 610.338 165.949 610.309 165.934C610.294 165.905 610.279 165.875 610.265 165.846C610.25 165.817 610.243 165.787 610.243 165.758C610.243 164.629 610.243 163.492 610.243 162.348C610.243 161.204 610.243 160.067 610.243 158.938C610.243 157.809 610.243 156.701 610.243 155.616C610.243 154.516 610.243 153.453 610.243 152.426C610.243 152.118 610.243 151.817 610.243 151.524C610.243 151.216 610.243 150.908 610.243 150.6C610.741 150.6 611.233 150.6 611.717 150.6C612.201 150.6 612.685 150.6 613.169 150.6C613.213 150.6 613.249 150.615 613.279 150.644C613.323 150.659 613.352 150.688 613.367 150.732C613.396 150.761 613.411 150.798 613.411 150.842C613.411 151.869 613.411 152.903 613.411 153.944C613.411 154.985 613.411 156.034 613.411 157.09C613.411 158.131 613.411 159.173 613.411 160.214C613.411 161.255 613.411 162.289 613.411 163.316H617.239C617.62 163.316 617.943 163.367 618.207 163.47C618.485 163.558 618.713 163.712 618.889 163.932C619.065 164.152 619.204 164.431 619.307 164.768C619.424 165.105 619.527 165.516 619.615 166H610.485ZM616.821 161.622C617.114 161.622 617.4 161.622 617.679 161.622C617.957 161.622 618.229 161.622 618.493 161.622C618.771 161.622 619.065 161.622 619.373 161.622C619.417 161.622 619.453 161.637 619.483 161.666C619.527 161.681 619.556 161.71 619.571 161.754C619.6 161.783 619.615 161.82 619.615 161.864C619.615 162.143 619.615 162.458 619.615 162.81C619.615 163.162 619.615 163.536 619.615 163.932C619.615 164.313 619.615 164.687 619.615 165.054C619.615 165.406 619.615 165.721 619.615 166C618.896 165.941 618.331 165.809 617.921 165.604C617.51 165.399 617.224 165.127 617.063 164.79C616.901 164.453 616.821 164.064 616.821 163.624C616.821 163.419 616.821 163.199 616.821 162.964C616.821 162.729 616.821 162.495 616.821 162.26C616.821 162.011 616.821 161.798 616.821 161.622ZM633.426 166C633.104 166 632.781 166 632.458 166C632.136 166 631.813 166 631.49 166C631.168 166 630.838 166 630.5 166C630.471 166 630.442 166 630.412 166C630.383 165.985 630.361 165.971 630.346 165.956C630.332 165.941 630.317 165.927 630.302 165.912C630.288 165.897 630.273 165.875 630.258 165.846C630.258 165.817 630.258 165.787 630.258 165.758C630.258 164.497 630.258 163.235 630.258 161.974C630.258 160.713 630.258 159.451 630.258 158.19C630.258 156.914 630.258 155.645 630.258 154.384C630.258 153.123 630.258 151.861 630.258 150.6C630.596 150.6 630.918 150.6 631.226 150.6C631.549 150.6 631.872 150.6 632.194 150.6C632.532 150.6 632.862 150.6 633.184 150.6C633.228 150.6 633.265 150.615 633.294 150.644C633.338 150.659 633.368 150.688 633.382 150.732C633.412 150.761 633.426 150.798 633.426 150.842C633.426 151.898 633.426 152.961 633.426 154.032C633.426 155.103 633.426 156.173 633.426 157.244C633.426 158.3 633.426 159.363 633.426 160.434C633.426 161.49 633.426 162.546 633.426 163.602C633.426 164.042 633.426 164.467 633.426 164.878C633.426 165.274 633.426 165.648 633.426 166ZM625.946 166.242C625.316 166.242 624.773 166.154 624.318 165.978C623.864 165.802 623.49 165.545 623.196 165.208C622.903 164.856 622.683 164.431 622.536 163.932C622.39 163.433 622.316 162.854 622.316 162.194C622.316 161.226 622.316 160.229 622.316 159.202C622.316 158.175 622.316 157.119 622.316 156.034C622.316 154.949 622.316 153.871 622.316 152.8C622.316 152.433 622.316 152.067 622.316 151.7C622.316 151.333 622.316 150.967 622.316 150.6C622.815 150.6 623.306 150.6 623.79 150.6C624.274 150.6 624.758 150.6 625.242 150.6C625.301 150.6 625.345 150.615 625.374 150.644C625.404 150.659 625.426 150.681 625.44 150.71C625.47 150.739 625.484 150.783 625.484 150.842C625.484 152.074 625.484 153.328 625.484 154.604C625.484 155.88 625.484 157.149 625.484 158.41C625.484 159.657 625.484 160.852 625.484 161.996C625.484 162.524 625.594 162.905 625.814 163.14C626.034 163.36 626.401 163.47 626.914 163.47C627.398 163.47 627.853 163.382 628.278 163.206C628.718 163.015 629.144 162.729 629.554 162.348C629.965 161.952 630.361 161.453 630.742 160.852V163.976H629.818C629.54 164.46 629.21 164.871 628.828 165.208C628.462 165.545 628.036 165.802 627.552 165.978C627.083 166.154 626.548 166.242 625.946 166.242ZM636.163 150.6H646.855C646.928 150.6 646.987 150.622 647.031 150.666C647.09 150.71 647.119 150.769 647.119 150.842C647.119 151.297 647.119 151.707 647.119 152.074C647.119 152.426 647.119 152.829 647.119 153.284H636.427C636.383 153.284 636.339 153.277 636.295 153.262C636.266 153.233 636.236 153.203 636.207 153.174C636.178 153.13 636.163 153.086 636.163 153.042C636.163 152.587 636.163 152.177 636.163 151.81C636.163 151.443 636.163 151.04 636.163 150.6ZM643.225 166C642.741 166 642.257 166 641.773 166C641.289 166 640.798 166 640.299 166C640.226 166 640.167 165.978 640.123 165.934C640.079 165.89 640.057 165.831 640.057 165.758C640.057 164.57 640.057 163.419 640.057 162.304C640.057 161.189 640.057 160.075 640.057 158.96C640.057 157.831 640.057 156.701 640.057 155.572C640.057 154.428 640.057 153.277 640.057 152.118H643.467L643.225 152.712C643.225 153.005 643.225 153.321 643.225 153.658C643.225 153.981 643.225 154.296 643.225 154.604C643.225 154.912 643.225 155.205 643.225 155.484C643.225 156.423 643.225 157.339 643.225 158.234C643.225 159.114 643.225 160.016 643.225 160.94C643.225 161.849 643.225 162.81 643.225 163.822C643.225 164.233 643.225 164.621 643.225 164.988C643.225 165.355 643.225 165.692 643.225 166ZM654.887 164.35H651.631L651.719 163.448C651.719 163.199 651.719 162.92 651.719 162.612C651.719 162.304 651.719 162.025 651.719 161.776C651.719 160.984 651.719 160.192 651.719 159.4C651.719 158.608 651.719 157.823 651.719 157.046C651.719 156.254 651.719 155.462 651.719 154.67C651.719 153.863 651.719 153.057 651.719 152.25H654.975L654.887 153.152C654.887 153.387 654.887 153.651 654.887 153.944C654.887 154.237 654.887 154.509 654.887 154.758C654.887 155.565 654.887 156.371 654.887 157.178C654.887 157.97 654.887 158.769 654.887 159.576C654.887 160.368 654.887 161.16 654.887 161.952C654.887 162.744 654.887 163.543 654.887 164.35ZM657.241 166H649.607C649.577 166 649.548 165.993 649.519 165.978C649.489 165.963 649.46 165.949 649.431 165.934C649.416 165.905 649.401 165.875 649.387 165.846C649.372 165.817 649.365 165.787 649.365 165.758C649.365 165.465 649.365 165.186 649.365 164.922C649.365 164.658 649.365 164.401 649.365 164.152C649.365 163.888 649.365 163.609 649.365 163.316H656.977C657.021 163.316 657.065 163.331 657.109 163.36C657.153 163.375 657.182 163.404 657.197 163.448C657.226 163.477 657.241 163.514 657.241 163.558C657.241 163.851 657.241 164.13 657.241 164.394C657.241 164.643 657.241 164.9 657.241 165.164C657.241 165.428 657.241 165.707 657.241 166ZM649.365 150.6H656.977C657.065 150.6 657.131 150.622 657.175 150.666C657.219 150.71 657.241 150.769 657.241 150.842C657.241 151.047 657.241 151.253 657.241 151.458C657.241 151.663 657.241 151.869 657.241 152.074C657.241 152.265 657.241 152.463 657.241 152.668C657.241 152.859 657.241 153.064 657.241 153.284H649.607C649.548 153.284 649.489 153.262 649.431 153.218C649.387 153.159 649.365 153.101 649.365 153.042C649.365 152.822 649.365 152.617 649.365 152.426C649.365 152.221 649.365 152.023 649.365 151.832C649.365 151.627 649.365 151.421 649.365 151.216C649.365 151.011 649.365 150.805 649.365 150.6ZM665.287 150.16C666.387 150.16 667.377 150.395 668.257 150.864C669.151 151.319 669.855 152.001 670.369 152.91C670.897 153.819 671.161 154.956 671.161 156.32V160.522C671.161 161.783 670.904 162.854 670.391 163.734C669.877 164.614 669.181 165.289 668.301 165.758C667.421 166.213 666.416 166.44 665.287 166.44C664.187 166.44 663.189 166.213 662.295 165.758C661.415 165.289 660.711 164.614 660.183 163.734C659.669 162.854 659.413 161.783 659.413 160.522V156.32C659.413 154.956 659.684 153.819 660.227 152.91C660.769 152.001 661.488 151.319 662.383 150.864C663.292 150.395 664.26 150.16 665.287 150.16ZM662.383 160.324C662.383 161.16 662.485 161.783 662.691 162.194C662.896 162.605 663.109 162.905 663.329 163.096C663.549 163.272 663.827 163.419 664.165 163.536C664.517 163.653 664.92 163.712 665.375 163.712C665.932 163.712 666.416 163.587 666.827 163.338C667.237 163.089 667.567 162.707 667.817 162.194C668.066 161.681 668.191 161.05 668.191 160.302V156.078C668.191 155.609 668.161 155.22 668.103 154.912C668.044 154.589 667.956 154.318 667.839 154.098C667.721 153.878 667.575 153.687 667.399 153.526C667.179 153.306 666.9 153.137 666.563 153.02C666.225 152.903 665.815 152.844 665.331 152.844C664.656 152.844 664.099 152.976 663.659 153.24C663.233 153.504 662.911 153.878 662.691 154.362C662.485 154.846 662.383 155.418 662.383 156.078V160.324ZM676.625 166C676.171 166 675.716 166 675.261 166C674.807 166 674.345 166 673.875 166C673.831 166 673.787 165.993 673.743 165.978C673.714 165.949 673.685 165.919 673.655 165.89C673.641 165.846 673.633 165.802 673.633 165.758C673.633 164.687 673.633 163.617 673.633 162.546C673.633 161.475 673.633 160.412 673.633 159.356C673.633 158.285 673.633 157.215 673.633 156.144C673.633 155.059 673.633 153.988 673.633 152.932C673.633 152.536 673.633 152.147 673.633 151.766C673.633 151.37 673.633 150.981 673.633 150.6C673.956 150.6 674.315 150.6 674.711 150.6C675.107 150.6 675.503 150.6 675.899 150.6C676.31 150.6 676.662 150.6 676.955 150.6C677.043 150.6 677.109 150.615 677.153 150.644C677.197 150.659 677.249 150.71 677.307 150.798C677.366 150.886 677.454 151.047 677.571 151.282C677.909 151.913 678.239 152.529 678.561 153.13C678.884 153.717 679.199 154.303 679.507 154.89C679.83 155.477 680.138 156.063 680.431 156.65C680.739 157.222 681.04 157.794 681.333 158.366C681.641 158.938 681.942 159.517 682.235 160.104C682.543 160.676 682.837 161.263 683.115 161.864L682.257 161.27H683.753L683.291 161.534C683.174 160.874 683.071 160.258 682.983 159.686C682.91 159.114 682.844 158.571 682.785 158.058C682.727 157.53 682.683 157.024 682.653 156.54C682.624 156.041 682.602 155.557 682.587 155.088C682.573 154.604 682.565 154.113 682.565 153.614C682.565 153.189 682.565 152.719 682.565 152.206C682.565 151.678 682.565 151.143 682.565 150.6C683.035 150.6 683.497 150.6 683.951 150.6C684.406 150.6 684.861 150.6 685.315 150.6C685.389 150.6 685.447 150.622 685.491 150.666C685.535 150.71 685.557 150.769 685.557 150.842C685.557 151.898 685.557 152.961 685.557 154.032C685.557 155.088 685.557 156.151 685.557 157.222C685.557 158.278 685.557 159.334 685.557 160.39C685.557 161.446 685.557 162.509 685.557 163.58C685.557 163.991 685.557 164.401 685.557 164.812C685.557 165.208 685.557 165.604 685.557 166C685.264 166 684.956 166 684.633 166C684.311 166 683.995 166 683.687 166C683.379 166 683.101 166 682.851 166C682.763 166 682.661 165.971 682.543 165.912C682.426 165.839 682.272 165.633 682.081 165.296C681.436 164.196 680.842 163.169 680.299 162.216C679.757 161.248 679.251 160.324 678.781 159.444C678.312 158.564 677.857 157.699 677.417 156.848C676.992 155.983 676.559 155.095 676.119 154.186L677.109 154.934H675.591L675.987 154.604C676.105 155.293 676.193 155.946 676.251 156.562C676.325 157.178 676.383 157.765 676.427 158.322C676.486 158.865 676.53 159.385 676.559 159.884C676.589 160.368 676.603 160.823 676.603 161.248C676.618 161.673 676.625 162.062 676.625 162.414C676.625 162.986 676.625 163.58 676.625 164.196C676.625 164.797 676.625 165.399 676.625 166ZM693.816 150.182C694.843 150.182 695.723 150.307 696.456 150.556C697.189 150.791 697.725 151.077 698.062 151.414C698.121 151.473 698.157 151.531 698.172 151.59C698.187 151.649 698.194 151.722 698.194 151.81C698.194 152.089 698.194 152.404 698.194 152.756C698.194 153.108 698.194 153.46 698.194 153.812C698.194 154.164 698.194 154.509 698.194 154.846C697.783 154.846 697.358 154.846 696.918 154.846C696.478 154.846 696.045 154.846 695.62 154.846C695.547 154.846 695.488 154.824 695.444 154.78C695.4 154.736 695.378 154.677 695.378 154.604C695.378 154.457 695.378 154.311 695.378 154.164C695.378 154.017 695.378 153.863 695.378 153.702C695.378 153.526 695.378 153.343 695.378 153.152C695.378 152.961 695.378 152.749 695.378 152.514L695.994 153.306C695.642 153.145 695.297 153.035 694.96 152.976C694.637 152.903 694.256 152.866 693.816 152.866C693.391 152.866 693.017 152.895 692.694 152.954C692.386 153.013 692.122 153.115 691.902 153.262C691.682 153.394 691.513 153.57 691.396 153.79C691.279 153.995 691.22 154.245 691.22 154.538V155C691.22 155.279 691.264 155.521 691.352 155.726C691.455 155.931 691.631 156.107 691.88 156.254C692.144 156.401 692.533 156.555 693.046 156.716L695.158 157.354C695.833 157.559 696.397 157.787 696.852 158.036C697.321 158.271 697.688 158.542 697.952 158.85C698.216 159.158 698.407 159.51 698.524 159.906C698.641 160.302 698.7 160.757 698.7 161.27V162.282C698.7 163.133 698.473 163.873 698.018 164.504C697.563 165.12 696.903 165.597 696.038 165.934C695.187 166.257 694.161 166.418 692.958 166.418C692.254 166.418 691.587 166.374 690.956 166.286C690.34 166.198 689.797 166.066 689.328 165.89C688.873 165.699 688.514 165.487 688.25 165.252C688.206 165.208 688.169 165.164 688.14 165.12C688.125 165.061 688.118 164.966 688.118 164.834C688.118 164.57 688.118 164.313 688.118 164.064C688.118 163.815 688.118 163.551 688.118 163.272C688.118 162.993 688.118 162.707 688.118 162.414H688.536C689.196 162.854 689.885 163.184 690.604 163.404C691.323 163.609 692.173 163.712 693.156 163.712C694.065 163.712 694.725 163.565 695.136 163.272C695.561 162.979 695.774 162.627 695.774 162.216V161.468C695.774 161.219 695.73 161.013 695.642 160.852C695.569 160.676 695.407 160.515 695.158 160.368C694.909 160.207 694.513 160.053 693.97 159.906L691.88 159.268C691.161 159.048 690.567 158.799 690.098 158.52C689.629 158.227 689.262 157.919 688.998 157.596C688.749 157.273 688.565 156.929 688.448 156.562C688.345 156.181 688.294 155.785 688.294 155.374V154.318C688.294 153.717 688.419 153.167 688.668 152.668C688.932 152.155 689.306 151.715 689.79 151.348C690.274 150.967 690.853 150.681 691.528 150.49C692.217 150.285 692.98 150.182 693.816 150.182Z" fill="#F83670"/>
<path d="M251.956 91.052C254.084 91.052 255.932 91.192 257.5 91.472C259.068 91.752 260.356 92.088 261.364 92.48C262.372 92.816 263.016 93.18 263.296 93.572C263.464 93.684 263.548 93.796 263.548 93.908C263.604 94.02 263.632 94.16 263.632 94.328C263.632 95.728 263.632 97.156 263.632 98.612C263.632 100.012 263.632 101.412 263.632 102.812H262.12C260.72 102.14 259.18 101.608 257.5 101.216C255.82 100.824 253.972 100.628 251.956 100.628C249.828 100.628 247.98 101.02 246.412 101.804C244.844 102.588 243.64 103.792 242.8 105.416C241.96 107.04 241.54 109.14 241.54 111.716V117.512C241.54 119.416 241.792 121.068 242.296 122.468C242.8 123.868 243.528 125.016 244.48 125.912C245.376 126.752 246.44 127.368 247.672 127.76C248.904 128.152 250.332 128.348 251.956 128.348C253.356 128.348 254.644 128.264 255.82 128.096C256.996 127.928 258.088 127.704 259.096 127.424C260.16 127.088 261.168 126.724 262.12 126.332H263.632C263.632 127.732 263.632 129.16 263.632 130.616C263.632 132.016 263.632 133.416 263.632 134.816C263.632 134.928 263.604 135.04 263.548 135.152C263.548 135.264 263.492 135.376 263.38 135.488C263.044 135.824 262.372 136.188 261.364 136.58C260.412 136.972 259.152 137.28 257.584 137.504C256.016 137.784 254.14 137.924 251.956 137.924C248.708 137.924 245.796 137.504 243.22 136.664C240.644 135.768 238.432 134.48 236.584 132.8C234.792 131.064 233.42 128.964 232.468 126.5C231.572 123.98 231.124 121.152 231.124 118.016V111.464C231.124 107.32 231.992 103.736 233.728 100.712C235.52 97.632 237.984 95.252 241.12 93.572C244.256 91.892 247.868 91.052 251.956 91.052ZM293.2 91.052C296.168 91.052 298.856 91.528 301.264 92.48C303.728 93.376 305.828 94.664 307.564 96.344C309.356 98.024 310.728 100.012 311.68 102.308C312.688 104.604 313.192 107.152 313.192 109.952V118.772C313.192 122.58 312.324 125.94 310.588 128.852C308.908 131.708 306.556 133.948 303.532 135.572C300.564 137.14 297.12 137.924 293.2 137.924C290.232 137.924 287.516 137.476 285.052 136.58C282.588 135.628 280.488 134.312 278.752 132.632C277.016 130.952 275.644 128.964 274.636 126.668C273.684 124.372 273.208 121.824 273.208 119.024V110.204C273.208 106.396 274.048 103.064 275.728 100.208C277.464 97.352 279.844 95.112 282.868 93.488C285.892 91.864 289.336 91.052 293.2 91.052ZM293.452 100.208C291.268 100.208 289.42 100.656 287.908 101.552C286.452 102.392 285.332 103.596 284.548 105.164C283.764 106.676 283.372 108.496 283.372 110.624V118.436C283.372 120.06 283.596 121.544 284.044 122.888C284.548 124.176 285.248 125.268 286.144 126.164C286.928 127.004 287.908 127.648 289.084 128.096C290.26 128.544 291.548 128.768 292.948 128.768C295.132 128.768 296.952 128.348 298.408 127.508C299.92 126.612 301.068 125.38 301.852 123.812C302.636 122.244 303.028 120.424 303.028 118.352V110.54C303.028 108.748 302.804 107.208 302.356 105.92C301.908 104.632 301.264 103.54 300.424 102.644C299.584 101.86 298.576 101.272 297.4 100.88C296.28 100.432 294.964 100.208 293.452 100.208ZM362.635 137C361.011 137 359.471 137 358.015 137C356.615 137 355.075 137 353.395 137C353.227 137 353.059 136.972 352.891 136.916C352.779 136.804 352.667 136.692 352.555 136.58C352.499 136.468 352.471 136.3 352.471 136.076C352.471 132.716 352.471 129.384 352.471 126.08C352.471 122.72 352.471 119.36 352.471 116C352.471 112.64 352.471 109.308 352.471 106.004C352.471 104.212 352.051 102.896 351.211 102.056C350.427 101.216 349.195 100.796 347.515 100.796C346.507 100.796 345.415 100.964 344.239 101.3C343.119 101.58 341.943 102.056 340.711 102.728C339.535 103.4 338.387 104.212 337.267 105.164C336.147 106.116 335.083 107.264 334.075 108.608V99.368H336.847C338.023 97.688 339.311 96.232 340.711 95C342.167 93.768 343.735 92.816 345.415 92.144C347.095 91.416 348.887 91.052 350.791 91.052C352.639 91.052 354.291 91.36 355.747 91.976C357.203 92.536 358.435 93.404 359.443 94.58C360.451 95.7 361.235 97.044 361.795 98.612C362.355 100.18 362.635 101.944 362.635 103.904C362.635 106.592 362.635 109.308 362.635 112.052C362.635 114.796 362.635 117.54 362.635 120.284C362.635 123.028 362.635 125.772 362.635 128.516C362.635 129.972 362.635 131.4 362.635 132.8C362.635 134.2 362.635 135.6 362.635 137ZM335.335 137C334.271 137 333.235 137 332.227 137C331.275 137 330.295 137 329.287 137C328.279 137 327.243 137 326.179 137C326.011 137 325.871 137 325.759 137C325.647 136.944 325.535 136.888 325.423 136.832C325.367 136.72 325.311 136.608 325.255 136.496C325.255 136.384 325.255 136.244 325.255 136.076C325.255 133.052 325.255 130.056 325.255 127.088C325.255 124.12 325.255 121.152 325.255 118.184C325.255 115.216 325.255 112.248 325.255 109.28C325.255 106.256 325.255 103.26 325.255 100.292C325.255 98.612 325.255 97.072 325.255 95.672C325.255 94.216 325.255 92.984 325.255 91.976C326.487 91.976 327.607 91.976 328.615 91.976C329.623 91.976 330.603 91.976 331.555 91.976C332.507 91.976 333.459 91.976 334.411 91.976C334.635 91.976 334.803 92.032 334.915 92.144C335.027 92.2 335.111 92.284 335.167 92.396C335.279 92.508 335.335 92.676 335.335 92.9C335.335 97.772 335.335 102.672 335.335 107.6C335.335 112.472 335.335 117.372 335.335 122.3C335.335 127.172 335.335 132.072 335.335 137ZM380.45 91.976C380.674 91.976 380.87 92.032 381.038 92.144C381.206 92.2 381.346 92.312 381.458 92.48C381.57 92.648 381.654 92.872 381.71 93.152C382.774 96.736 383.838 100.376 384.902 104.072C386.022 107.768 387.142 111.716 388.262 115.916C389.382 120.06 390.502 124.652 391.622 129.692H393.134C393.862 126.668 394.562 123.812 395.234 121.124C395.906 118.38 396.578 115.748 397.25 113.228C397.978 110.652 398.65 108.188 399.266 105.836C399.938 103.484 400.61 101.16 401.282 98.864C401.954 96.568 402.626 94.272 403.298 91.976C404.866 91.976 406.434 91.976 408.002 91.976C409.57 91.976 411.11 91.976 412.622 91.976C412.902 91.976 413.126 92.06 413.294 92.228C413.462 92.34 413.574 92.508 413.63 92.732C413.742 92.9 413.742 93.124 413.63 93.404C412.454 96.988 411.278 100.6 410.102 104.24C408.926 107.88 407.778 111.548 406.658 115.244C405.538 118.884 404.39 122.524 403.214 126.164C402.038 129.748 400.862 133.36 399.686 137C397.446 137 395.206 137 392.966 137C390.782 137 388.766 137 386.918 137C386.414 137 385.966 136.944 385.574 136.832C385.238 136.664 384.958 136.384 384.734 135.992C384.51 135.544 384.258 134.9 383.978 134.06C383.138 131.484 382.27 128.852 381.374 126.164C380.534 123.476 379.666 120.732 378.77 117.932C377.93 115.132 377.034 112.304 376.082 109.448C375.186 106.536 374.262 103.624 373.31 100.712C372.414 97.8 371.518 94.888 370.622 91.976C372.246 91.976 373.87 91.976 375.494 91.976C377.174 91.976 378.826 91.976 380.45 91.976ZM441.841 91.052C444.809 91.052 447.497 91.528 449.905 92.48C452.369 93.376 454.469 94.664 456.205 96.344C457.997 98.024 459.369 100.012 460.321 102.308C461.329 104.604 461.833 107.152 461.833 109.952V118.772C461.833 122.58 460.965 125.94 459.229 128.852C457.549 131.708 455.197 133.948 452.173 135.572C449.205 137.14 445.761 137.924 441.841 137.924C438.873 137.924 436.157 137.476 433.693 136.58C431.229 135.628 429.129 134.312 427.393 132.632C425.657 130.952 424.285 128.964 423.277 126.668C422.325 124.372 421.849 121.824 421.849 119.024V110.204C421.849 106.396 422.689 103.064 424.369 100.208C426.105 97.352 428.485 95.112 431.509 93.488C434.533 91.864 437.977 91.052 441.841 91.052ZM442.093 100.208C439.909 100.208 438.061 100.656 436.549 101.552C435.093 102.392 433.973 103.596 433.189 105.164C432.405 106.676 432.013 108.496 432.013 110.624V118.436C432.013 120.06 432.237 121.544 432.685 122.888C433.189 124.176 433.889 125.268 434.785 126.164C435.569 127.004 436.549 127.648 437.725 128.096C438.901 128.544 440.189 128.768 441.589 128.768C443.773 128.768 445.593 128.348 447.049 127.508C448.561 126.612 449.709 125.38 450.493 123.812C451.277 122.244 451.669 120.424 451.669 118.352V110.54C451.669 108.748 451.445 107.208 450.997 105.92C450.549 104.632 449.905 103.54 449.065 102.644C448.225 101.86 447.217 101.272 446.041 100.88C444.921 100.432 443.605 100.208 442.093 100.208ZM474.736 84.668C474.736 82.652 474.736 80.804 474.736 79.124C474.736 77.388 474.736 75.68 474.736 74C476.08 74 477.032 74 477.592 74C478.208 74 478.656 74 478.936 74C479.216 74 479.468 74 479.692 74C479.972 74 480.42 74 481.036 74C481.652 74 482.632 74 483.976 74C484.144 74 484.284 74.056 484.396 74.168C484.564 74.224 484.676 74.308 484.732 74.42C484.844 74.532 484.9 74.7 484.9 74.924C484.9 78.228 484.9 81.504 484.9 84.752C484.9 88 484.9 91.248 484.9 94.496C484.9 97.688 484.9 100.908 484.9 104.156C484.9 107.404 484.9 110.652 484.9 113.9C484.9 117.148 484.9 120.396 484.9 123.644C484.9 124.316 484.928 124.904 484.984 125.408C485.096 125.856 485.32 126.22 485.656 126.5C485.992 126.836 486.384 127.088 486.832 127.256C487.336 127.368 487.952 127.424 488.68 127.424C488.904 127.424 489.184 127.424 489.52 127.424C489.856 127.424 490.164 127.424 490.444 127.424C490.78 127.424 491.088 127.424 491.368 127.424C491.704 127.424 491.928 127.424 492.04 127.424H492.88C492.88 128.768 492.88 130.224 492.88 131.792C492.88 133.304 492.88 134.732 492.88 136.076C492.88 136.356 492.796 136.58 492.628 136.748C492.46 136.916 492.236 137 491.956 137C491.732 137 491.508 137 491.284 137C491.116 137 490.836 137 490.444 137C490.108 137 489.604 137 488.932 137C488.26 137 487.308 137 486.076 137C484.172 137 482.52 136.748 481.12 136.244C479.72 135.74 478.544 134.984 477.592 133.976C476.64 132.912 475.912 131.596 475.408 130.028C474.96 128.46 474.736 126.612 474.736 124.484C474.736 121.18 474.736 117.876 474.736 114.572C474.736 111.212 474.736 107.88 474.736 104.576C474.736 101.272 474.736 97.968 474.736 94.664C474.736 91.304 474.736 87.972 474.736 84.668ZM507.188 91.976C507.412 91.976 507.608 92.032 507.776 92.144C507.944 92.2 508.084 92.312 508.196 92.48C508.308 92.648 508.392 92.872 508.448 93.152C509.512 96.736 510.576 100.376 511.64 104.072C512.76 107.768 513.88 111.716 515 115.916C516.12 120.06 517.24 124.652 518.36 129.692H519.872C520.6 126.668 521.3 123.812 521.972 121.124C522.644 118.38 523.316 115.748 523.988 113.228C524.716 110.652 525.388 108.188 526.004 105.836C526.676 103.484 527.348 101.16 528.02 98.864C528.692 96.568 529.364 94.272 530.036 91.976C531.604 91.976 533.172 91.976 534.74 91.976C536.308 91.976 537.848 91.976 539.36 91.976C539.64 91.976 539.864 92.06 540.032 92.228C540.2 92.34 540.312 92.508 540.368 92.732C540.48 92.9 540.48 93.124 540.368 93.404C539.192 96.988 538.016 100.6 536.84 104.24C535.664 107.88 534.516 111.548 533.396 115.244C532.276 118.884 531.128 122.524 529.952 126.164C528.776 129.748 527.6 133.36 526.424 137C524.184 137 521.944 137 519.704 137C517.52 137 515.504 137 513.656 137C513.152 137 512.704 136.944 512.312 136.832C511.976 136.664 511.696 136.384 511.472 135.992C511.248 135.544 510.996 134.9 510.716 134.06C509.876 131.484 509.008 128.852 508.112 126.164C507.272 123.476 506.404 120.732 505.508 117.932C504.668 115.132 503.772 112.304 502.82 109.448C501.924 106.536 501 103.624 500.048 100.712C499.152 97.8 498.256 94.888 497.36 91.976C498.984 91.976 500.608 91.976 502.232 91.976C503.912 91.976 505.564 91.976 507.188 91.976ZM567.927 91.052C571.623 91.052 574.871 91.808 577.671 93.32C580.471 94.776 582.655 96.904 584.223 99.704C585.791 102.448 586.575 105.808 586.575 109.784V116.504C586.575 116.672 586.547 116.84 586.491 117.008C586.435 117.12 586.323 117.204 586.155 117.26C586.043 117.316 585.903 117.344 585.735 117.344H565.575C564.679 117.344 563.727 117.344 562.719 117.344C561.767 117.344 560.815 117.344 559.863 117.344H556.755L556.167 110.876H576.747C576.747 110.596 576.747 110.372 576.747 110.204C576.747 109.98 576.747 109.728 576.747 109.448C576.747 107.656 576.551 106.116 576.159 104.828C575.767 103.54 575.179 102.504 574.395 101.72C573.667 100.992 572.771 100.46 571.707 100.124C570.643 99.788 569.383 99.62 567.927 99.62C564.903 99.62 562.607 100.404 561.039 101.972C559.471 103.484 558.687 106.032 558.687 109.616V119.276C558.687 120.844 558.883 122.216 559.275 123.392C559.667 124.512 560.227 125.464 560.955 126.248C561.963 127.256 563.251 127.984 564.819 128.432C566.387 128.88 568.235 129.104 570.363 129.104C572.435 129.104 574.227 128.992 575.739 128.768C577.307 128.544 578.763 128.236 580.107 127.844C581.507 127.452 582.851 127.004 584.139 126.5H585.651C585.651 127.732 585.651 128.992 585.651 130.28C585.651 131.568 585.651 132.828 585.651 134.06C585.651 134.172 585.623 134.284 585.567 134.396C585.511 134.508 585.427 134.62 585.315 134.732C584.811 135.236 583.803 135.74 582.291 136.244C580.779 136.748 578.959 137.14 576.831 137.42C574.703 137.756 572.491 137.924 570.195 137.924C566.667 137.924 563.531 137.532 560.787 136.748C558.099 135.908 555.859 134.676 554.067 133.052C552.275 131.428 550.903 129.468 549.951 127.172C548.999 124.82 548.523 122.188 548.523 119.276V109.952C548.523 106.928 548.971 104.268 549.867 101.972C550.819 99.62 552.163 97.632 553.899 96.008C555.691 94.384 557.763 93.152 560.115 92.312C562.523 91.472 565.127 91.052 567.927 91.052ZM610.246 137.756C608.79 137.756 607.362 137.756 605.962 137.756C604.618 137.756 603.246 137.756 601.846 137.756C600.502 137.756 599.074 137.756 597.562 137.756C597.394 137.756 597.226 137.7 597.058 137.588C596.946 137.532 596.834 137.42 596.722 137.252C596.666 137.14 596.638 137 596.638 136.832V123.98C598.15 123.98 599.578 123.98 600.922 123.98C602.322 123.98 603.694 123.98 605.038 123.98C606.438 123.98 607.866 123.98 609.322 123.98C609.546 123.98 609.714 124.036 609.826 124.148C609.938 124.204 610.022 124.288 610.078 124.4C610.19 124.512 610.246 124.68 610.246 124.904V137.756ZM658.973 108.104C658.973 109.504 658.973 110.932 658.973 112.388C658.973 113.788 658.973 115.216 658.973 116.672C658.973 118.072 658.973 119.5 658.973 120.956C658.973 122.412 658.973 123.812 658.973 125.156C658.973 125.716 659.001 126.192 659.057 126.584C659.169 126.976 659.365 127.284 659.645 127.508C659.813 127.732 660.065 127.9 660.401 128.012C660.737 128.124 661.157 128.18 661.661 128.18C661.773 128.18 661.885 128.18 661.997 128.18C662.165 128.18 662.333 128.18 662.501 128.18H664.013C664.013 129.468 664.013 130.784 664.013 132.128C664.013 133.416 664.013 134.732 664.013 136.076C664.013 136.356 663.929 136.58 663.761 136.748C663.593 136.916 663.369 137 663.089 137C662.809 137 662.193 137 661.241 137C660.345 137 659.533 137 658.805 137C657.293 137 655.949 136.776 654.773 136.328C653.597 135.88 652.533 135.208 651.581 134.312C650.685 133.416 649.985 132.352 649.481 131.12C649.033 129.832 648.809 128.404 648.809 126.836C648.809 125.044 648.809 123.196 648.809 121.292C648.809 119.388 648.809 117.54 648.809 115.748C648.809 114.796 648.809 113.872 648.809 112.976C648.809 112.08 648.809 111.184 648.809 110.288C648.809 109.392 648.809 108.496 648.809 107.6C648.809 105.808 648.501 104.408 647.885 103.4C647.269 102.336 646.289 101.608 644.945 101.216C643.657 100.768 641.865 100.544 639.569 100.544C637.945 100.544 636.377 100.628 634.865 100.796C633.409 100.908 631.981 101.132 630.581 101.468C629.181 101.748 627.725 102.14 626.213 102.644H624.785C624.785 101.356 624.785 100.04 624.785 98.696C624.785 97.296 624.785 95.98 624.785 94.748C624.785 94.524 624.813 94.356 624.869 94.244C624.925 94.076 624.981 93.964 625.037 93.908C625.317 93.628 626.213 93.264 627.725 92.816C629.237 92.368 631.057 91.976 633.185 91.64C635.313 91.304 637.441 91.136 639.569 91.136C642.985 91.136 645.897 91.472 648.305 92.144C650.769 92.76 652.785 93.74 654.353 95.084C655.921 96.428 657.069 98.192 657.797 100.376C658.581 102.504 658.973 105.08 658.973 108.104ZM631.673 124.568C631.673 125.912 632.065 126.976 632.849 127.76C633.633 128.488 634.837 128.852 636.461 128.852C638.085 128.852 639.653 128.656 641.165 128.264C642.733 127.816 644.273 127.144 645.785 126.248C647.297 125.352 648.809 124.12 650.321 122.552V129.776H647.885C647.045 131.512 645.953 132.996 644.609 134.228C643.321 135.404 641.781 136.3 639.989 136.916C638.197 137.532 636.237 137.84 634.109 137.84C631.533 137.84 629.293 137.336 627.389 136.328C625.541 135.32 624.085 133.92 623.021 132.128C622.013 130.336 621.509 128.236 621.509 125.828V122.972C621.509 121.124 621.817 119.472 622.433 118.016C623.049 116.504 623.917 115.244 625.037 114.236C626.213 113.172 627.613 112.36 629.237 111.8C630.861 111.184 632.681 110.876 634.697 110.876C636.657 110.876 638.561 110.876 640.409 110.876C642.257 110.876 644.049 110.876 645.785 110.876C647.521 110.876 649.229 110.876 650.909 110.876C651.357 110.876 651.693 111.296 651.917 112.136C652.197 112.92 652.365 113.816 652.421 114.824C652.477 115.832 652.505 116.7 652.505 117.428C650.601 117.428 648.781 117.428 647.045 117.428C645.365 117.428 643.657 117.428 641.921 117.428C640.185 117.428 638.365 117.428 636.461 117.428C635.621 117.428 634.893 117.54 634.277 117.764C633.717 117.932 633.213 118.24 632.765 118.688C632.429 119.024 632.149 119.472 631.925 120.032C631.757 120.536 631.673 121.096 631.673 121.712V124.568ZM677.02 136.076C677.02 134.34 677.02 132.324 677.02 130.028C677.02 127.676 677.02 125.184 677.02 122.552C677.02 119.92 677.02 117.288 677.02 114.656C677.02 112.024 677.02 109.532 677.02 107.18C677.02 104.828 677.02 102.812 677.02 101.132H676.264C675.872 101.132 675.452 101.132 675.004 101.132C674.556 101.132 674.08 101.132 673.576 101.132C673.072 101.132 672.568 101.132 672.064 101.132C671.56 101.132 671.084 101.132 670.636 101.132C670.356 101.132 670.132 101.048 669.964 100.88C669.796 100.656 669.712 100.432 669.712 100.208C669.712 98.864 669.712 97.492 669.712 96.092C669.712 94.692 669.712 93.32 669.712 91.976C670.608 91.976 671.644 91.976 672.82 91.976C673.996 91.976 675.2 91.976 676.432 91.976C677.72 91.976 678.952 91.976 680.128 91.976C681.36 91.976 682.508 91.976 683.572 91.976C684.636 91.976 685.532 91.976 686.26 91.976C686.484 91.976 686.652 92.032 686.764 92.144C686.876 92.2 686.96 92.284 687.016 92.396C687.128 92.508 687.184 92.676 687.184 92.9C687.184 95.588 687.184 98.472 687.184 101.552C687.184 104.632 687.184 107.768 687.184 110.96C687.184 114.096 687.184 117.204 687.184 120.284C687.184 123.308 687.184 126.22 687.184 129.02C687.184 129.86 687.184 130.728 687.184 131.624C687.184 132.52 687.184 133.416 687.184 134.312C687.184 135.208 687.184 136.104 687.184 137C685.56 137 684.02 137 682.564 137C681.164 137 679.624 137 677.944 137C677.664 137 677.44 136.916 677.272 136.748C677.104 136.58 677.02 136.356 677.02 136.076ZM675.172 70.892C676.18 70.892 677.188 70.892 678.196 70.892C679.204 70.892 680.24 70.892 681.304 70.892C682.424 70.892 683.488 70.892 684.496 70.892C685.504 70.892 686.512 70.892 687.52 70.892C687.8 70.892 688.024 70.976 688.192 71.144C688.36 71.312 688.444 71.536 688.444 71.816V81.728C687.436 81.728 686.428 81.728 685.42 81.728C684.412 81.728 683.348 81.728 682.228 81.728C681.164 81.728 680.128 81.728 679.12 81.728C678.112 81.728 677.104 81.728 676.096 81.728C675.816 81.728 675.592 81.644 675.424 81.476C675.256 81.308 675.172 81.084 675.172 80.804V70.892Z" fill="black"/>
</svg>
